<svg xmlns="http://www.w3.org/2000/svg" xmlns:xlink="http://www.w3.org/1999/xlink" width="39" height="45" viewBox="0 0 39 45">
  <defs>
    <clipPath id="clip-backpack">
      <rect width="39" height="45"/>
    </clipPath>
  </defs>
  <g id="backpack" clip-path="url(#clip-backpack)">
    <rect width="39" height="45" fill="#fff"/>
    <g id="Group_368" data-name="Group 368" transform="translate(-434 -1359.82)">
      <g id="Group_364" data-name="Group 364" transform="translate(500.775 1347.06)">
        <path id="Path_422" data-name="Path 422" d="M-35.532,50.913V23.774M-59.2,50.913V23.774m24.477,29.29h0A3.984,3.984,0,0,0-38.7,49.091H-56.037a3.984,3.984,0,0,0-3.973,3.973h0a3.984,3.984,0,0,0,3.973,3.973H-38.7A3.985,3.985,0,0,0-34.722,53.064Zm0-31.322h0A3.984,3.984,0,0,0-38.7,17.769H-56.037a3.984,3.984,0,0,0-3.973,3.973h0a3.984,3.984,0,0,0,3.973,3.973H-38.7A3.985,3.985,0,0,0-34.722,21.742ZM-51.786,27.38v-3.5a.608.608,0,0,0-.606-.606h0a.608.608,0,0,0-.606.606v3.5a.608.608,0,0,0,.606.606h0A.608.608,0,0,0-51.786,27.38Zm10.678,0v-3.5a.608.608,0,0,0-.606-.606h0a.608.608,0,0,0-.606.606v3.5a.608.608,0,0,0,.606.606h0A.608.608,0,0,0-41.108,27.38Zm1.424,14.674V36.987a2.358,2.358,0,0,0-2.351-2.351H-52.608a2.358,2.358,0,0,0-2.351,2.351v5.067A2.358,2.358,0,0,0-52.608,44.4h10.573A2.358,2.358,0,0,0-39.684,42.054ZM-59.2,49.409v-10a1.153,1.153,0,0,0-1.15-1.15h-4.462a1.153,1.153,0,0,0-1.15,1.15v10a1.153,1.153,0,0,0,1.15,1.15h4.462A1.152,1.152,0,0,0-59.2,49.409Zm-.379-12.3V33.459a1.153,1.153,0,0,0-1.15-1.15h-2.033a1.153,1.153,0,0,0-1.15,1.15v3.653a1.153,1.153,0,0,0,1.15,1.15h2.033A1.152,1.152,0,0,0-59.578,37.112Zm30.989,12.3v-10a1.153,1.153,0,0,0-1.15-1.15H-34.2a1.153,1.153,0,0,0-1.15,1.15v10a1.153,1.153,0,0,0,1.15,1.15h4.462A1.152,1.152,0,0,0-28.59,49.409Zm-1.8-12.3V33.459a1.153,1.153,0,0,0-1.15-1.15h-2.033a1.153,1.153,0,0,0-1.15,1.15v3.653a1.153,1.153,0,0,0,1.15,1.15h2.033A1.152,1.152,0,0,0-30.392,37.112ZM-41.714,15.44h0a1.963,1.963,0,0,0-1.957-1.957h-7.371A1.963,1.963,0,0,0-53,15.44h0A1.963,1.963,0,0,0-51.041,17.4h7.371A1.964,1.964,0,0,0-41.714,15.44Z" fill="none" stroke="#3510ff" stroke-miterlimit="10" stroke-width="1"/>
      </g>
    </g>
  </g>
</svg>
