<svg xmlns="http://www.w3.org/2000/svg" xmlns:xlink="http://www.w3.org/1999/xlink" width="1366" height="2114" viewBox="0 0 1366 2114">
  <defs>
    <clipPath id="clip-Stay_Informed_bg">
      <rect width="1366" height="2114"/>
    </clipPath>
  </defs>
  <g id="Stay_Informed_bg" data-name="Stay Informed bg" clip-path="url(#clip-Stay_Informed_bg)">
    <rect width="1366" height="2114" fill="#fff"/>
    <g id="Group_421" data-name="Group 421" transform="translate(14215.714 -2220)">
      <g id="Group_417" data-name="Group 417" transform="translate(-9150.508 -4183.182) rotate(-60)">
        <rect id="Rectangle_6" data-name="Rectangle 6" width="241" height="24" transform="translate(-7877 -347)" fill="#fff"/>
      </g>
    </g>
    <g id="Group_439" data-name="Group 439" transform="matrix(0.174, 0.985, -0.985, 0.174, 1302.061, -63.528)" style="isolation: isolate">
      <path id="Path_430" data-name="Path 430" d="M1.549,0c5.386,17.433,9.723,38.112,14.232,59.824,6.908,33.256,14.061,67.635,25.951,94.544,16.009,36.243,45.29,61.777,76.307,88.83,21.8,19.013,44.342,38.687,62.549,62.782,18.843,24.9,36.661,56.09,55.515,89.119,16.343,28.631,33.245,58.215,50.937,83.486,4.35,6.2,8.973,13.04,13.884,20.306,32.254,47.7,76.425,113.069,124.559,119.244a110.937,110.937,0,0,0,13.669.889c51.524,0,86.677-39.487,120.667-77.657,21.365-23.98,43.467-48.8,69.214-63.012,24.5-13.525,58.3-20.3,94.1-27.482,42.274-8.473,85.985-17.205,118.727-37.971,22.544-14.3,41.842-35.785,60.481-56.548,33.056-36.846,67.234-74.93,121.168-74.93a141.782,141.782,0,0,1,40.669,6.435c29.409,8.818,61.6,31.132,92.735,52.7,15.422,10.684,31.333,21.712,46.382,30.7,43.624,25.992,90.467,45.32,135.757,64.048,55.056,22.745,112.006,46.265,162.9,81.761,12.349,8.617,25.558,20.334,39.576,32.712,31.331,27.744,63.73,56.436,92.39,56.436h.632c22.459-.345,48.566-21.424,69.529-38.341l3.935-3.161c58.389-46.9,123.726-106.175,165.368-190.179,25.531-51.524,32.08-122.117,38.426-190.384,6.606-71.252,12.955-138.83,39.318-184.15h1.637c-26.536,45.032-32.855,112.839-39.49,184.295-6.346,68.41-12.922,139.145-38.571,190.9-41.786,84.262-107.239,143.687-165.769,190.7l-3.906,3.158c-21.168,17.061-47.5,38.285-70.449,38.659h-.662c-29.236,0-61.833-28.866-93.368-56.81-13.986-12.349-27.168-24.039-39.461-32.6-50.749-35.412-107.613-58.9-162.61-81.621-45.349-18.726-92.216-38.112-135.931-64.158-15.078-8.992-31.044-20.047-46.467-30.73-31.047-21.513-63.125-43.77-92.305-52.5a141.139,141.139,0,0,0-40.267-6.376c-53.275,0-87.25,37.822-120.077,74.443-18.693,20.851-38.052,42.389-60.8,56.806-32.944,20.881-76.8,29.667-119.218,38.17-35.667,7.149-69.369,13.9-93.681,27.312-25.518,14.1-47.531,38.828-68.811,62.723-34.221,38.4-69.59,78.117-121.773,78.117a108.594,108.594,0,0,1-13.857-.889c-48.793-6.261-93.18-71.917-125.59-119.877-4.912-7.238-9.535-14.072-13.873-20.276-17.733-25.33-34.649-54.94-51-83.6-18.843-32.97-36.632-64.132-55.415-88.973-18.108-23.954-40.6-43.57-62.35-62.554C85.929,217.179,56.52,191.5,40.38,154.97,28.432,127.918,21.268,93.453,14.331,60.14,9.793,38.285,5.428,17.433,0,0Z" transform="translate(0 0)" fill="#3510ff" style="mix-blend-mode: color-dodge;isolation: isolate"/>
      <path id="Path_431" data-name="Path 431" d="M1.524,0C5.255,14.878,8.4,30.186,11.431,45.15c7.3,35.984,14.834,73.175,31.162,103.215C60.73,181.71,91.7,200.091,121.671,217.9c26.683,15.826,51.869,30.76,68.7,55.372,11.042,16.139,18.639,38.743,26.006,60.626,3.921,11.631,7.956,23.666,12.5,34.724,11.272,27.455,25.85,54.938,47.245,89.173,2.383,3.82,4.867,7.841,7.438,12,30.359,49.225,71.928,116.659,128,121.542,3.015.258,6.045.4,9,.4,48.249,0,78.493-34.379,110.512-70.767,21.614-24.553,43.958-49.942,72.262-63.47,24.468-11.687,56.647-16.713,90.709-22.057,40.551-6.317,82.512-12.893,113.212-31.476,28.749-17.374,49.8-43.481,70.133-68.7,27.542-34.176,53.564-66.458,95.695-74.211a163.839,163.839,0,0,1,29.727-2.843c51.581,0,85.583,27.57,121.567,56.75,12.237,9.908,24.872,20.16,38.459,29.524,48.793,33.573,107.842,59.161,164.936,83.888,48.3,20.937,93.941,40.725,133.631,64.879,11.69,7.093,23.809,15.566,36.618,24.524,36.964,25.821,75.216,52.53,110.831,52.731h.429c52.156,0,104.051-50.172,135.041-80.157,39.431-38.111,70.189-80.069,91.5-124.759,25.475-53.444,29.953-126.279,34.291-196.727C1874.029,105.631,1877.762,45.638,1895.6,0h1.609c-17.952,45.493-21.684,105.6-25.593,168.958-4.364,70.593-8.843,143.6-34.461,197.3-21.369,44.831-52.242,86.936-91.788,125.188-31.162,30.129-83.315,80.56-136.075,80.56h-.458c-36.074-.23-74.469-27.054-111.634-53.017-12.807-8.934-24.9-17.378-36.562-24.471-39.6-24.095-85.179-43.854-133.431-64.761-57.178-24.786-116.285-50.374-165.2-84.033-13.64-9.394-26.306-19.675-38.54-29.612-35.785-29.007-69.588-56.4-120.65-56.4a163.854,163.854,0,0,0-29.469,2.813c-41.586,7.667-67.435,39.717-94.8,73.664-20.422,25.332-41.529,51.553-70.508,69.072-30.96,18.724-73.065,25.3-113.76,31.676-33.958,5.315-66.04,10.311-90.295,21.912-28.044,13.385-50.286,38.659-71.8,63.1-30.829,35.041-62.707,71.284-111.618,71.284-3,0-6.073-.144-9.132-.4-56.809-4.968-98.611-72.746-129.126-122.26-2.57-4.163-5.052-8.184-7.437-12-21.454-34.291-36.058-61.836-47.357-89.377-4.567-11.114-8.631-23.178-12.552-34.839-7.651-22.773-14.889-44.283-25.8-60.253-16.658-24.323-41.716-39.2-68.238-54.941C90.782,201.267,59.624,182.8,41.3,149.083,24.872,118.842,17.3,81.538,9.981,45.434,6.938,30.387,3.764,14.963,0,0Z" transform="translate(22.759 0)" fill="#3510ff" style="mix-blend-mode: color-dodge;isolation: isolate"/>
      <path id="Path_432" data-name="Path 432" d="M3.031,0C22.245,87.825,48.049,191.991,143.7,191.991c1.953,0,3.921-.03,5.914-.115,16.528-.718,31.421-9.5,45.822-18.007,16.2-9.534,32.956-19.413,51.939-17.693,15.4,1.38,35.212,14.822,50.478,34.266C311.9,208.3,318.774,226.8,316.706,241.159c-2.414,16.831-17.5,26.021-33.472,35.7-17.693,10.741-37.724,22.919-43.411,47.76-5.026,21.971,3.592,61.086,14.7,88.371,20.867,51.236,77.129,149.915,140.7,156.779a100.87,100.87,0,0,0,10.929.6c48.692,0,80.068-36.7,110.428-72.171,21.409-25.043,41.642-48.707,67.13-59.248,22.287-9.22,52.313-12.378,84.1-15.711,37.826-3.965,76.928-8.039,104.986-22.917,33.057-17.519,57.065-47.617,80.329-76.74,28-35.123,54.452-68.267,94.429-78.115a154.391,154.391,0,0,1,36.7-4.6c57.095,0,100.431,35.151,138.657,66.17,8.272,6.693,16.083,13.039,23.954,19.012,50.489,38.311,111.864,65.768,171.2,92.336,40.752,18.207,82.883,37.076,121.342,59.332,10.048,5.8,20.474,12.582,31.5,19.731,35.9,23.321,76.6,49.742,118.612,51.465,47.878,2.012,88.974-34.406,118.73-60.826l1.435-1.265c48.277-42.849,108.9-117.72,123.694-231.192,4.452-34.149,5.141-72.4,5.861-109.422,1-54.424,2.009-106.091,13.755-146.213h3.073c-11.861,39.865-12.866,91.674-13.9,146.269-.691,37.107-1.409,75.448-5.861,109.768-11.8,90.525-54.909,171.11-124.669,233l-1.436,1.294c-30.1,26.734-71.57,63.556-120.8,61.573-42.819-1.754-83.859-28.432-120.1-51.954-11-7.123-21.4-13.9-31.365-19.646-38.341-22.2-80.387-41.011-121.053-59.217-59.506-26.624-121.053-54.166-171.772-92.65-7.954-6.032-15.767-12.352-24.039-19.072-39.72-32.223-80.786-65.508-136.819-65.508a149.951,149.951,0,0,0-35.984,4.508c-39,9.593-65.168,42.361-92.853,77.084C832,354.8,807.754,385.16,774.18,402.965,745.632,418.1,706.231,422.207,668.12,426.2c-31.577,3.3-61.389,6.432-83.274,15.507C560,451.989,540,475.37,518.82,500.126c-30.786,36.014-62.624,73.2-112.665,73.2a106.634,106.634,0,0,1-11.243-.6C329.961,565.719,272.894,465.92,251.8,414.11c-11.3-27.715-20.031-67.607-14.861-90.181,5.973-26.048,26.581-38.571,44.758-49.6,16.028-9.734,29.869-18.151,32.082-33.573,1.923-13.383-4.9-31.477-18.24-48.448-14.789-18.843-33.8-31.85-48.418-33.174-18.081-1.636-33.661,7.555-50.189,17.319-14.72,8.644-29.927,17.634-47.186,18.381C46.57,199.173,19.845,90.783,0,0Z" transform="translate(39.187 0)" fill="#3510ff" style="mix-blend-mode: color-dodge;isolation: isolate"/>
      <path id="Path_433" data-name="Path 433" d="M75.022,133.865c5.055-1.294,9.823-2.5,14.246-3.705C207.65,97.388,283.239,58.016,337.893,0H339.9C284.993,58.76,209,98.567,89.64,131.593c-4.423,1.207-9.19,2.442-14.246,3.707-32.164,8.214-72.227,18.409-73.9,43.222-1.435,21.4,49.2,79.956,76.655,106.551,47.9,46.411,114.045,78.834,172.4,107.441,20.477,10.022,39.8,19.5,58.014,29.293,38.167,20.564,81.419,43.856,126.967,56.492a138.139,138.139,0,0,0,36.792,5.054c45.951,0,81.477-23.578,98.566-37.649C682.213,354.084,681.868,183.26,669.031,0H670.5c6.2,88.687,9.678,180.7-2.959,259.366-13.5,84.266-44.831,145.581-95.723,187.482-17.23,14.19-53.074,38-99.484,38a139.57,139.57,0,0,1-37.165-5.111c-45.72-12.692-89.06-36.013-127.285-56.607-18.176-9.792-37.508-19.271-57.985-29.293-58.445-28.633-124.7-61.086-172.777-107.7C52.307,262.1-1.544,201.584.034,178.436,1.758,152.53,42.4,142.193,75.022,133.865Z" transform="translate(1148.95 0)" fill="#3510ff" style="mix-blend-mode: color-dodge;isolation: isolate"/>
      <path id="Path_434" data-name="Path 434" d="M63.857,151.035C137.324,111.864,212.942,66.459,271.786,0h1.926C214.636,67.177,138.5,112.925,64.548,152.359,25.775,173.036,6.591,191.647,2.369,212.7c-3.676,18.352,4.163,39.117,23.98,63.5,31.594,38.887,88.688,71.541,143.886,103.131l6.693,3.82c57.957,33.171,130.071,74.5,196.673,74.5,37.275,0,68.381-12.663,95.117-38.684,42.249-41.126,69.044-102.875,79.669-183.491,8.5-64.847,7.037-142.019-4.508-235.472h1.495c11.546,93.512,13.01,170.74,4.479,235.675-10.656,80.96-37.593,142.995-80.1,184.349-27.028,26.31-58.5,39.088-96.153,39.088-67.006,0-139.319-41.414-197.419-74.669l-6.665-3.82C114.175,348.973,56.967,316.231,25.2,277.145,5.1,252.388-2.857,231.223.9,212.413,5.241,190.871,24.654,171.946,63.857,151.035Z" transform="translate(1248.113 0)" fill="#3510ff" style="mix-blend-mode: color-dodge;isolation: isolate"/>
      <path id="Path_435" data-name="Path 435" d="M83.934,123.554c6.691-5.917,13.01-11.518,19.013-17.031C141.516,70.967,175.693,37.623,212.109,0h2.038C177.36,38.053,142.9,71.715,103.952,107.613c-6.031,5.545-12.352,11.143-19.041,17.061C31.063,172.205-35.914,231.4,27.128,305.95,62.939,348.255,161.735,413.335,230.75,430.68a171.121,171.121,0,0,0,41.556,5.457c21.48,0,41.126-4.825,58.417-14.331C443.043,360.175,455.883,167.694,418.8,0h1.465c18.554,84,23.466,168.728,13.7,239.924-12.323,89.807-47.789,153.133-102.532,183.2-17.519,9.621-37.419,14.505-59.133,14.505a173.1,173.1,0,0,1-41.931-5.513C161.132,414.713,61.936,349.375,26.008,306.9-37.981,231.253,29.6,171.514,83.934,123.554Z" transform="translate(1341.91 0)" fill="#3510ff" style="mix-blend-mode: color-dodge;isolation: isolate"/>
      <path id="Path_436" data-name="Path 436" d="M136.115,52.9C156.878,34.9,176.668,17.693,194.1,0h2.1c-17.749,18.122-37.938,35.67-59.133,54.051C85.511,98.709,32.209,144.919,9.086,205.519c-10.166,26.65-10.166,59.91,0,82.743,12.235,27.541,42.506,58.7,80.961,83.371,42.248,27.112,87.05,42.016,126.167,42.016,32.6,0,59.964-10.222,81.418-30.415C381.351,304.431,386.093,129.442,342.9,0h1.58c43.166,129.841,38.2,305.2-45.836,384.328-21.713,20.449-49.454,30.815-82.425,30.815-84.38,0-183.059-69.071-208.476-126.279-10.312-23.178-10.312-56.9-.03-83.893C30.974,144.031,84.417,97.707,136.115,52.9Z" transform="translate(1392.603 0)" fill="#3510ff" style="mix-blend-mode: color-dodge;isolation: isolate"/>
      <path id="Path_437" data-name="Path 437" d="M215.467,0c-39.949,0-89.088,40.755-114.851,65.024C64.228,99.344,30.484,141.848,16.639,170.77c-22.172,46.265-22.172,94.14-.085,134.837,23.147,42.619,67.579,70.851,121.859,77.486,44.974,5.485,84.694-14.934,113.729-58.3,22.343-33.4,37.221-79.639,40.839-126.855,6.95-90.927-14.359-187.855-68.612-197.19A52.722,52.722,0,0,0,215.467,0ZM152.774,382.49a118.4,118.4,0,0,1-14.16-.862c-53.821-6.606-97.848-34.549-120.765-76.739-21.856-40.234-21.827-87.654.115-133.487,13.783-28.78,47.415-71.083,83.66-105.288,25.588-24.125,74.413-64.62,113.844-64.62a49.46,49.46,0,0,1,8.644.718c53.391,9.191,74.3,105.345,67.406,195.61-3.589,46.983-18.408,92.964-40.609,126.137C225.29,362.242,191.343,382.49,152.774,382.49Z" transform="translate(1445.792 1.435)" fill="#3510ff" style="mix-blend-mode: color-dodge;isolation: isolate"/>
      <path id="Path_438" data-name="Path 438" d="M-4.745-13.368C19.324,43.726,51.465,104.655,93.925,148.2c21.813,22.371,48.723,39.487,74.729,56.029,25.189,16.028,51.221,32.571,73.079,54.051C252.946,269.3,262.983,281.8,272.7,293.89c29.927,37.249,58.2,72.457,120.048,72.457a184.005,184.005,0,0,0,19.86-1.146c59.779-6.635,84.68-52.989,108.749-97.79,4.8-8.9,9.734-18.1,14.875-26.824,3.909-6.694,11.316-15.711,19.874-26.136,18.7-22.832,41.96-51.235,39.147-68.581-2.989-18.583-37.165-26.595-64.621-33.029-3.014-.718-5.944-1.406-8.731-2.068C447.206,92.566,395.426,67.177,371.457,0h1.566c23.839,66.2,75.188,91.272,149.229,109.308,2.785.688,5.714,1.38,8.729,2.068,27.889,6.548,62.582,14.674,65.74,34.235,2.9,18.036-20.592,46.725-39.49,69.787-8.5,10.4-15.854,19.357-19.73,25.936-5.111,8.729-10.053,17.892-14.819,26.795-24.269,45.145-49.369,91.817-109.911,98.538a180.874,180.874,0,0,1-20.019,1.176c-62.549,0-92.361-37.135-121.2-73.006-9.689-12.063-19.716-24.527-30.859-35.5-21.738-21.369-47.716-37.881-72.83-53.851-26.08-16.6-53.06-33.747-74.986-56.262C50.115,105.4,17.861,44.13-6.349-13.368Z" transform="translate(337.903 0)" fill="#3510ff" style="mix-blend-mode: color-dodge;isolation: isolate"/>
      <path id="Path_439" data-name="Path 439" d="M1.6,0C23.7,54.539,52.039,109.164,102.933,148.137c19.671,15.049,42.089,25.389,65.825,36.358,20.174,9.3,41.041,18.926,61.244,32.052,19.8,12.837,35.212,32.538,50.116,51.611,19.4,24.811,37.722,48.277,65.049,58.384a71.278,71.278,0,0,0,25.03,4.567c27.471,0,55.356-15.765,78.5-44.342,27-33.4,40.84-76.855,34.437-108.131-5.142-25.043-33.69-37.823-61.316-50.2-14.763-6.606-28.692-12.837-38.931-20.792C345.2,78.434,332.36,43.856,316.088.086A.217.217,0,0,0,316.062,0h1.578c16.1,43.338,28.906,77.6,66.156,106.464,10.107,7.841,23.95,14.045,38.628,20.621,27.971,12.523,56.865,25.474,62.176,51.236,6.491,31.706-7.466,75.675-34.749,109.392-23.466,28.951-51.726,44.89-79.655,44.89a73.532,73.532,0,0,1-25.547-4.653c-27.712-10.281-47.028-34.982-65.693-58.876-14.822-18.954-30.157-38.569-49.745-51.292-20.13-13.04-40.938-22.66-61.072-31.937-23.809-11-46.31-21.365-66.1-36.532C50.689,110,22.217,54.943,0,0Z" transform="translate(367.251 0)" fill="#3510ff" style="mix-blend-mode: color-dodge;isolation: isolate"/>
      <path id="Path_440" data-name="Path 440" d="M1.594,0c28.575,71.426,66.629,116.774,119.07,142.1,23.062,11.117,48.207,16.887,72.516,22.489,29.354,6.72,57.084,13.1,78.362,28.145,9.635,6.807,18.008,19.3,26.868,32.512,15.279,22.8,31.089,46.38,55.442,44.716,19.085-1.294,36-25.5,34.794-49.8-1.32-26.222-22.4-39.72-42.819-52.757-11.272-7.208-22.933-14.674-30.916-24.154-26.795-31.82-33.529-66.055-40.652-102.328C271.628,27.513,268.9,13.758,265.082,0h1.55c3.761,13.669,6.461,27.342,9.076,40.638,7.079,36.073,13.784,70.133,40.323,101.64,7.854,9.333,19.413,16.713,30.586,23.865,20.721,13.27,42.145,26.967,43.5,53.966,1.265,25.015-16.313,50-36.158,51.35-.847.056-1.679.086-2.512.086-23.78,0-39.276-23.118-54.25-45.462-8.791-13.1-17.09-25.474-26.5-32.139-21.05-14.875-48.636-21.195-77.845-27.915-24.382-5.6-49.613-11.372-72.819-22.6C67.087,117.866,28.746,72.114,0,0Z" transform="translate(393.733 0)" fill="#3510ff" style="mix-blend-mode: color-dodge;isolation: isolate"/>
      <path id="Path_441" data-name="Path 441" d="M1.578,0C23.147,59.047,84.147,133.318,166.516,133.318c2.57,0,5.17-.085,7.74-.23,19.257-1.091,33.115-7.353,42.361-19.242C236.794,87.969,230.131,39.4,223.038,0h1.508c7.12,39.635,13.753,88.457-6.764,114.763-9.394,12.065-24.009,18.728-43.441,19.82-2.6.143-5.226.228-7.825.228C83.2,134.811,21.583,59.537,0,0Z" transform="translate(413.692 0)" fill="#3510ff" style="mix-blend-mode: color-dodge;isolation: isolate"/>
      <path id="Path_442" data-name="Path 442" d="M1.608,0c28.78,67.033,98.224,78.808,198.739,88.457,27.831,2.7,53.422,9.389,78.149,15.883,23,6.029,44.716,11.746,66.714,13.87,14.216,1.409,28.95,2.1,43.713,2.1C526.43,120.307,662.65,60.427,730.629,0h2.242C665.061,61,527.639,121.8,388.923,121.8c-14.819,0-29.582-.716-43.857-2.1-22.113-2.153-43.88-7.87-66.944-13.9-24.671-6.491-50.2-13.183-77.915-15.854C98.855,80.188,28.894,68.3,0,0Z" transform="translate(727.697 0)" fill="#3510ff" style="mix-blend-mode: color-dodge;isolation: isolate"/>
      <path id="Path_443" data-name="Path 443" d="M1.519,0C13.41,45.981,66.945,81.3,109.207,81.3c17.4,0,31.547-6,40.926-17.345,11.487-13.929,15.636-35.9,12.2-63.96h1.508c3.547,28.662-.662,50.461-12.582,64.906C141.6,76.6,127.055,82.8,109.207,82.8,66.284,82.8,11.889,46.784,0,0Z" transform="translate(441.522 0)" fill="#3510ff" style="mix-blend-mode: color-dodge;isolation: isolate"/>
      <path id="Path_444" data-name="Path 444" d="M1.723,0C30.53,50.376,96.182,53.649,171.368,57.41c8.159.4,16.458.806,24.845,1.294,29.062,1.664,58.471,7.407,86.933,12.952,24.929,4.855,48.507,9.419,69.76,10.857,11.92.8,23.95,1.206,35.815,1.206C490.388,83.719,590.763,52.7,661.729,0h2.5c-71.34,53.619-172.778,85.213-275.506,85.213-11.891,0-23.983-.4-35.93-1.209-21.338-1.435-44.945-6.029-69.934-10.91-28.4-5.515-57.783-11.232-86.733-12.9-8.384-.489-16.657-.892-24.842-1.294C95.261,55.112,28.95,51.782,0,0Z" transform="translate(755.471 0)" fill="#3510ff" style="mix-blend-mode: color-dodge;isolation: isolate"/>
      <path id="Path_445" data-name="Path 445" d="M2.038,0c29.268,30.789,78.148,31.965,133.8,33.315,14.591.345,29.669.718,45.15,1.58,27.485,1.578,56.75,6.807,85.038,11.833C299.055,52.616,333.236,58.7,363.677,58.7h.573C465.716,58.445,542.629,22.372,580.626,0h2.9C546.217,22.316,468.017,59.939,364.25,60.2h-.573c-30.586,0-64.791-6.091-97.905-12.005-28.26-5.026-57.469-10.225-84.865-11.805-15.451-.89-30.53-1.235-45.091-1.608C79.181,33.43,29.523,32.224,0,0Z" transform="translate(788.411 0)" fill="#3510ff" style="mix-blend-mode: color-dodge;isolation: isolate"/>
      <path id="Path_446" data-name="Path 446" d="M2.986,0c21.4,12.091,49.627,15.482,77.744,17.061,31.448,1.749,64.447,5,99.37,8.443,53.821,5.315,109.453,10.8,161.834,10.8,75.535,0,130.358-11.6,170.108-36.3H514.8c-40.149,25.7-95.751,37.8-172.864,37.8-52.47,0-108.128-5.487-161.978-10.8-34.923-3.447-67.893-6.72-99.313-8.443C51.378,16.916,21.883,13.3,0,0Z" transform="translate(820.693 0)" fill="#3510ff" style="mix-blend-mode: color-dodge;isolation: isolate"/>
      <path id="Path_447" data-name="Path 447" d="M10.913,0c2.842.4,5.684.777,8.5,1.178C70.966,8.359,124.24,15.767,173.982,15.767c41.07,0,76.049-5.2,106.089-15.767h4.339c-31.047,11.577-67.435,17.261-110.428,17.261-49.857,0-103.19-7.438-154.77-14.59Q9.649,1.335,0,0Z" transform="translate(982.299 0)" fill="#3510ff" style="mix-blend-mode: color-dodge;isolation: isolate"/>
      <path id="Path_448" data-name="Path 448" d="M140.132,22.461c11.731,17.632,11.532,39.919-.576,62.753-15.193,28.633-45.563,50.23-70.635,50.23a44.461,44.461,0,0,1-7.123-.573c-19.113-3.276-37.423-15.28-48.981-32.082C4.933,91.359-3.439,72.347,1.456,46.813,6.83,18.813,50.067,0,87.072,0h0C111.655,0,130.51,7.985,140.132,22.461ZM87.072,2.989c-35.1,0-77.686,18.237-82.712,44.4-4.7,24.5,3.332,42.734,10.884,53.7,11.114,16.169,28.706,27.687,47.043,30.848a41.928,41.928,0,0,0,6.634.544c24.069,0,53.3-20.937,68.024-48.681,6.705-12.636,15.711-37.162.732-59.68C128.616,10.485,110.637,2.989,87.072,2.989Z" transform="translate(375.171 369.42)" fill="#3510ff" style="mix-blend-mode: color-dodge;isolation: isolate"/>
      <path id="Path_449" data-name="Path 449" d="M92.4,146.7C57.366,104.8,17.1,37.77-10.747-20.157h3.272C20.081,36.938,60.053,103.391,94.657,144.778c22.29,26.68,49.026,48.678,74.873,69.931,21.024,17.289,40.87,33.629,58.115,52.01,10.814,11.546,18.4,25.189,25.7,38.37,8.158,14.7,15.855,28.575,27.415,38.915,31.85,28.4,86.633,36.5,102.658,38.311a236.2,236.2,0,0,0,26.121,1.524c87.5,0,124.716-55.515,160.729-109.165,22.315-33.256,43.4-64.677,75.39-82.625,22.141-12.408,44.572-18.724,66.688-18.724,60.8,0,109.88,46.208,149.281,83.315,2.555,2.383,5.027,4.738,7.5,7.036,47.272,44.2,85.67,73.436,120.882,92.017,21.28,11.23,44.2,21.423,68.438,32.252,25.389,11.286,51.609,22.977,76.422,36.188,12.551,6.661,25.446,14.474,39.086,22.745,42.479,25.762,90.612,54.971,140.613,54.971a125.2,125.2,0,0,0,29.18-3.447c103.246-25.015,187.627-157.843,188.085-296.13.056-22.4-1.524-46.669-3.217-72.372-2.871-43.281-5.773-87.882-1.235-129.9h2.958c-4.567,41.847-1.637,86.448,1.206,129.7,1.724,25.76,3.3,50.057,3.248,72.6-.2,65.05-19.935,134.122-54.081,189.465-35.785,58.011-84.177,96.9-136.276,109.507a126.457,126.457,0,0,1-29.868,3.531c-50.8,0-99.313-29.408-142.132-55.37-13.613-8.241-26.481-16.054-38.943-22.66-24.73-13.152-50.921-24.842-76.223-36.1-24.3-10.828-47.272-21.08-68.64-32.338-35.44-18.724-74.068-48.106-121.511-92.479-2.47-2.3-4.971-4.653-7.5-7.034-39.062-36.761-87.654-82.513-147.274-82.513-21.6,0-43.57,6.177-65.254,18.352-31.361,17.607-52.268,48.71-74.354,81.651-36.447,54.339-74.154,110.512-163.2,110.512a242.6,242.6,0,0,1-26.45-1.549c-16.242-1.838-71.786-10.053-104.281-39.058-11.948-10.654-19.759-24.757-28.032-39.664-7.238-13.037-14.72-26.536-25.287-37.792-17.12-18.237-36.891-34.524-57.826-51.726C141.7,195.666,114.865,173.582,92.4,146.7Z" transform="translate(308.206 0)" fill="#3510ff" style="mix-blend-mode: color-dodge;isolation: isolate"/>
      <path id="Path_450" data-name="Path 450" d="M-5.31-39.144c2.611,7.926,13.468,55.8,15.964,64.878,12.223,44.4,26.077,94.718,74.329,94.718h.788c27.3-.315,41.772-17.291,55.759-33.688,13.7-16.085,27.859-32.656,53.706-31.765,32.409,1.179,69.762,51.35,94.474,84.55,5.041,6.75,9.391,12.608,13.053,17.176,7.252,9.017,14.16,16.944,20.836,24.612,8.934,10.252,17.378,19.93,26.5,31.937,1.064,1.406,2.226,2.93,3.461,4.508,13.051,16.887,32.77,42.42,29.338,65.05-3.764,24.872-30.171,34.291-58.129,44.258-29.425,10.51-59.84,21.339-66.055,51.062-8.877,42.419,24.323,90.239,35.237,105.945,10.067,14.505,40.711,58.619,81.581,58.876h.458c39.82,0,65.811-34.434,90.957-67.719,21.266-28.176,43.251-57.328,73.736-66.114,26.292-7.581,49.916-8.558,67.55-8.558,9.276,0,18.4.315,27.224.6,8.717.289,16.946.573,25.234.573,20.433,0,44.612-1.578,68.97-13.354,38.311-18.524,63.73-53.33,88.311-86.962,34.062-46.583,66.229-90.612,128.865-90.612a162.546,162.546,0,0,1,38.055,4.884c38.111,9.191,77.944,42.792,113.127,72.433,7.149,6.028,13.9,11.746,20.5,17.115,59.075,48.164,115.165,73.264,180.13,102.3,34.522,15.453,70.219,31.421,109.365,52.269,9.992,5.344,20.5,11.805,31.591,18.639,36.79,22.6,78.6,48.365,124.355,46.669,49.428-1.808,98.364-36.672,149.631-106.52,45.432-61.92,69.53-122,73.636-183.72,2.355-35.44,1.176-70.419.057-104.222C1785.7,83.461,1784.235,38.63,1792.967,0h3.017c-8.79,38.4-7.327,83.287-5.747,130.588,1.12,33.862,2.3,68.9-.085,104.511-4.135,62.293-28.4,122.894-74.182,185.27-51.838,70.652-101.525,105.889-151.929,107.727-46.64,1.695-88.856-24.267-125.965-47.1-11.083-6.807-21.538-13.239-31.476-18.524-39.029-20.822-74.669-36.762-109.164-52.184-65.134-29.15-121.4-54.309-180.79-102.7-6.632-5.4-13.382-11.114-20.534-17.146-34.923-29.437-74.5-62.838-111.921-71.828a159.691,159.691,0,0,0-37.364-4.8c-61.145,0-92.88,43.425-126.479,89.377-24.786,33.947-50.463,69.041-89.406,87.884-24.9,12.03-49.484,13.669-70.261,13.669-8.33,0-16.587-.289-25.333-.573-8.8-.319-17.892-.632-27.124-.632-17.447,0-40.8.976-66.747,8.473-29.523,8.5-51.207,37.249-72.187,65.019-25.574,33.888-52.024,68.929-93.309,68.929h-.472c-42.406-.289-73.7-45.348-83.978-60.141-11.1-16-44.861-64.592-35.712-108.3,6.546-31.333,37.764-42.476,67.951-53.219,27.1-9.678,52.7-18.81,56.2-41.9,3.231-21.365-16.024-46.3-28.762-62.781-1.235-1.608-2.4-3.132-3.477-4.538-9.046-11.919-17.46-21.567-26.361-31.793-6.708-7.7-13.629-15.622-20.91-24.7-3.705-4.623-8.069-10.485-13.126-17.261-24.382-32.74-61.215-82.224-92.216-83.374-24.384-.892-37.48,14.446-51.351,30.73C129.355,105.6,114.447,123.093,85.8,123.439h-.817c-50.5,0-65.294-53.736-77.185-96.9C5.214,17.117-5.712-31.044-8.426-39.144Z" transform="translate(70.564 0)" fill="#3510ff" style="mix-blend-mode: color-dodge;isolation: isolate"/>
    </g>
  </g>
</svg>
