<svg id="Layer_1" data-name="Layer 1" xmlns="http://www.w3.org/2000/svg" xmlns:xlink="http://www.w3.org/1999/xlink" viewBox="0 0 1366 2114"><defs><style>.cls-1{fill:none;}.cls-2{clip-path:url(#clip-path);}.cls-3{fill:#3510ff;}</style><clipPath id="clip-path"><rect class="cls-1" width="1366" height="2114"/></clipPath></defs><g class="cls-2"><g id="home_background_v3_4" data-name="home background v3 4"><path id="Path_170" data-name="Path 170" class="cls-1" d="M-24,1270l1386-71v543L-24,1815Z"/><g id="Group_384" data-name="Group 384"><path id="Path_430" data-name="Path 430" class="cls-3" d="M2079.56,1309.75c-20.68,5.87-43.9,14.85-68.24,24.33-37.29,14.52-75.85,29.52-110.07,35-46.08,7.44-90.1-5.1-136.74-18.38-32.77-9.33-66.68-19-102.17-21.51-36.7-2.63-78.95-.22-123.68,2.35-38.78,2.23-78.86,4.52-115.18,3.26-8.92-.32-18.64-.5-29-.69-67.83-1.25-160.76-2.94-197.75-46.54a130.5,130.5,0,0,1-9.66-12.93c-33.06-50.91-16.61-111-.71-169.07,10-36.5,20.31-74.26,17.83-108.82-2.36-32.89-17.36-70.63-33.24-110.61-18.76-47.21-38.19-96-38.69-141.68-.34-31.45,8.5-64.31,17.06-96,15.19-56.3,30.88-114.52-3.74-167.8-8.2-12.63-19.1-24.76-32.46-36.06-27.58-23.39-70.29-40.88-111.58-57.8-20.46-8.38-41.57-17-60.1-26.12-53.68-26.42-102.84-60.3-150.41-93-57.81-39.79-117.6-81-185.34-108.47C589.27,152.5,569.22,147,548,141.06c-47.52-13.15-96.66-26.74-115-55.06l-.41-.62c-14.07-22.41-10-61.74-6.74-93.31l.6-5.91c8.86-87.79,25.5-190.39,81.77-285.45,34.52-58.29,100.06-110.07,163.44-160.15,66.16-52.26,128.85-101.91,156.71-157l-1-1.62C799.8-563,736.86-513.21,670.52-460.8,607-410.62,541.33-358.73,506.66-300.17,450.22-204.8,433.52-102,424.63-14L424-8.11c-3.27,31.87-7.34,71.51,7,94.42l.42.65c18.77,28.89,68.21,42.57,116.06,55.79,21.17,5.9,41.18,11.42,57.53,18.07,67.55,27.42,127.26,68.52,185,108.28,47.6,32.78,96.84,66.65,150.63,93.13,18.56,9.12,39.73,17.8,60.18,26.18,41.18,16.87,83.76,34.28,111.11,57.51,13.23,11.22,24,23.2,32.15,35.69,34.19,52.64,18.63,110.48,3.51,166.42-8.6,31.85-17.46,64.8-17.1,96.53.51,46,20,94.92,38.8,142.29,15.82,39.83,30.79,77.46,33.14,110.09,2.44,34.26-7.86,71.88-17.81,108.24-16,58.46-32.52,118.89,1,170.45a127.55,127.55,0,0,0,9.77,13.12c37.5,44.19,130.86,45.91,199,47.15,10.3.21,20,.39,28.94.69,36.4,1.27,76.52-1,115.33-3.26,44.67-2.54,86.88-5,123.47-2.35,35.29,2.52,69.11,12.15,101.83,21.46,46.79,13.34,91,25.92,137.49,18.41,34.39-5.55,73-20.59,110.41-35.12,24.51-9.55,47.92-18.62,68.63-24.45Z"/><path id="Path_431" data-name="Path 431" class="cls-3" d="M2065,1287.29c-17.09,5.86-34.24,12.58-51,19.19-40.23,15.88-81.82,32.31-122,35.45-44.58,3.48-82.62-15.32-119.45-33.51-32.76-16.2-63.68-31.5-98.8-32.33-23-.55-50.24,6.45-76.59,13.21-14,3.6-28.49,7.33-42.33,9.93-34.36,6.49-70.88,9.73-118.43,10.56-5.3.1-10.87.22-16.63.35-68.12,1.6-161.43,3.81-202.24-48.46-2.19-2.82-4.28-5.72-6.18-8.64-31-47.67-16.41-99.62-1-154.61,10.39-37.11,21.13-75.48,16.33-112.13-4.15-31.68-19.84-66.7-36.42-103.78-19.79-44.12-40.22-89.8-41.56-132.06-1.29-39.55,11-77.11,22.86-113.38,16.09-49.15,31.29-95.58,11.91-142.18a194.26,194.26,0,0,0-16.27-31.2c-33.11-51-82.17-66.86-134.1-83.68-17.64-5.74-35.88-11.64-53.85-19-64.49-26.67-127.67-68.59-188.74-109.13C738.83,217.55,690,185.17,640.65,161.45c-14.51-7-30.66-13.53-47.73-20.44-49.23-19.95-100.17-40.6-123.23-75.66l-.27-.42c-33.48-51.53-17.21-135-7.48-184.87,12.35-63.41,34.07-120.73,64.54-170.47C562.94-349.88,632-401,698.85-450.55c60-44.45,116.85-86.65,150.5-133.56l-1-1.59C814.89-538.77,757.89-496.5,697.8-452,630.86-402.36,561.6-351.08,525-291.3c-30.58,49.89-52.37,107.41-64.78,171-9.77,50.12-26.12,134,7.74,186.15l.29.45c23.38,35.49,74.53,56.22,124,76.27,17,6.92,33.15,13.45,47.65,20.42,49.21,23.66,98,56,149.62,90.27,61.18,40.59,124.4,82.56,189.05,109.29,18,7.44,36.32,13.36,54,19.07,51.62,16.74,100.39,32.55,133.16,83a192.32,192.32,0,0,1,16.13,30.91c19.12,46,4,92.12-11.94,141-11.92,36.44-24.28,74.11-23,114,1.37,42.61,21.9,88.43,41.72,132.73,16.54,37,32.19,71.87,36.3,103.27,4.78,36.3-5.92,74.5-16.26,111.44-14.83,53-30.18,107.71,1.21,156,1.92,3,4,5.91,6.26,8.77,41.37,52.94,135.16,50.74,203.67,49.11,5.76-.13,11.32-.26,16.63-.36,47.65-.81,84.24-4.06,118.7-10.57,13.91-2.62,28.44-6.35,42.48-10,27.41-7,53.31-13.71,76.09-13.17,34.72.84,65.5,16,98.08,32.16,37,18.3,75.27,37.23,120.34,33.7,40.42-3.18,82.14-19.65,122.51-35.58,16.82-6.65,34.09-13.42,51.29-19.3Z"/><path id="Path_432" data-name="Path 432" class="cls-3" d="M2053.46,1269.57c-99.1,37.38-218.58,78.74-280-15.77-1.26-1.93-2.49-3.89-3.69-5.91-9.9-16.79-10.77-37.15-11.61-56.83-1-22.13-2-45-15.86-62.68-11.24-14.32-37.24-25.27-66.25-27.88-26.66-2.41-49.35,2.67-62.21,13.93-15.08,13.18-14.47,34-13.79,56,.74,24.38,1.57,52-19.33,73.54-18.48,19.07-62.66,35.66-96.75,42.19-64,12.27-197.62,20-245.2-38.39a119.56,119.56,0,0,1-7.61-10.41c-31.25-48.11-15.12-102.66.44-155.43,11-37.22,21.39-72.4,15.45-104.35-5.19-27.94-21.34-59.63-38.46-93.18-20.36-39.92-41.43-81.17-44.73-118.44C1160,722,1174.31,679,1188.15,637.32c16.73-50.21,32.5-97.61,16.58-143.43a182.12,182.12,0,0,0-19-39.21c-36.64-56.41-99.19-76.67-154.37-94.53-11.92-3.88-23.2-7.52-34.16-11.47-70.25-25.29-136.77-68.31-201.1-109.88-44.15-28.58-89.83-58.09-136.5-81.81-12.18-6.21-25.57-12.16-39.72-18.47-46.08-20.5-98.3-43.75-127-84.16-32.72-46-23.11-110-16.1-156.34l.32-2.23c11.36-75.2,46.42-183.16,149-270.6,30.88-26.31,68.24-51.54,104.35-76C783.63-486.74,834-520.9,866.13-558.26l-2-3c-31.77,37.3-82.32,71.55-135.6,107.61-36.22,24.5-73.64,49.81-104.69,76.24C542-307.68,490.05-213.37,473.67-104.73l-.35,2.25C466.22-55.58,456.45,9,490,56.39c29.21,41.18,81.91,64.61,128.41,85.32,14.1,6.3,27.47,12.22,39.54,18.38,46.55,23.64,92.12,53.1,136.2,81.6C858.66,283.4,925.37,326.53,996,351.94c11.06,4,22.32,7.65,34.27,11.51,57.33,18.57,116.57,37.78,152.53,93.14A176.46,176.46,0,0,1,1201.39,495c15.56,44.69,0,91.57-16.56,141.21-14,42-28.4,85.43-24.44,130,3.36,37.92,24.6,79.48,45.11,119.7,17,33.32,33,64.78,38.12,92.23,5.79,31.14-4.47,65.91-15.34,102.73-15.82,53.53-32.13,108.85,0,158.3a128.11,128.11,0,0,0,7.81,10.72c48.62,59.67,183.85,52,248.58,39.6,34.63-6.63,79.65-23.6,98.64-43.2,21.9-22.62,21-51,20.28-76.06-.67-22.08-1.24-41.16,12.58-53.24,12-10.49,34.24-15.36,59.57-13.07,28.11,2.52,53.16,13,63.85,26.55,13.22,16.81,14.14,38.1,15.1,60.7.91,20.09,1.79,40.88,12.13,58.42,61.93,104.72,186.17,61.56,288.61,22.9Z"/><path id="Path_433" data-name="Path 433" class="cls-3" d="M1162.74,187.88c-2-5.83-3.83-11.31-5.48-16.45-43.6-138-53.21-238-31-329.19l-1.29-2c-22.81,92-13.37,192.6,30.6,331.73,1.65,5.14,3.49,10.64,5.49,16.45,12.52,37,28.16,83.18,4.72,100.75-20.22,15.15-110.58,2.71-154.48-7.35-76.6-17.54-151.08-62.08-216.8-101.38-23-13.8-44.81-26.82-66.18-38.52-44.81-24.51-95.58-52.3-137.3-89.19a162.94,162.94,0,0,1-28.61-33.11C533-25.77,533.45-76,536.38-101.92,555.46-270.7,724.46-380,913.76-484.93l-.94-1.45C821.22-435.58,728.07-380,658.46-317c-74.59,67.42-115.06,137.73-123.8,214.9C531.7-76,531.18-25.27,561,20.59A164.15,164.15,0,0,0,589.87,54c41.88,37,92.74,64.88,137.62,89.43,21.34,11.67,43.11,24.69,66.16,38.49C859.45,221.32,934,266,1011,283.53c39.68,9.09,134,23.46,155.88,7C1191.32,272.24,1175.45,225.46,1162.74,187.88Z"/><path id="Path_434" data-name="Path 434" class="cls-3" d="M1089.3,112c-8.45-97.72-12.12-201.58,15.78-302.37l-1.24-1.9c-28.46,101.48-24.79,206.07-16.29,304.44,4.45,51.58-1.62,82.48-19.71,100.16-15.77,15.41-41.32,21-78.13,17.06-58.7-6.25-127.6-41.71-194.24-76l-8.07-4.16c-70-36-157.09-80.7-199.84-146.5C563.64-34.13,556.19-73,564.74-116.1c13.52-68.14,57.33-134.24,130.16-196.48,58.61-50,135.8-98.1,235.55-146.67l-1-1.48c-99.8,48.61-177,96.73-235.73,146.83C620.61-251.41,576.61-185,563-116.44,554.38-72.85,562-33.55,586.12,3.65c43,66.2,130.33,111.07,200.48,147.13l8,4.13c66.79,34.37,135.85,69.88,194.86,76.17,37.36,4,63.38-1.74,79.55-17.53C1087.56,195.44,1093.8,164.11,1089.3,112Z"/><path id="Path_435" data-name="Path 435" class="cls-3" d="M1043.37-18.19c1.55-10.41,3-20.25,4.62-29.72,10.38-60.93,21.39-116.1,35.19-176.22l-1.31-2c-14,60.77-25.12,116.43-35.6,178-1.61,9.51-3.08,19.35-4.64,29.76-12.4,83.71-27.89,187.87-142,173.43-64.78-8.23-192.49-64.07-253.92-121.13A201.78,201.78,0,0,1,613.63-3.69C599.84-24.92,592-47.42,590.3-70.61,579.1-221.14,761-357.36,950.52-428.35l-.94-1.45c-94.9,35.58-181.77,85.11-245.84,140.45-80.83,69.81-120.63,145.5-115.21,218.89,1.74,23.48,9.68,46.28,23.62,67.73a203.69,203.69,0,0,0,32.36,37.89C706.15,92.4,834.37,148.48,899.39,156.71,1015.2,171.38,1030.86,66.27,1043.37-18.19Z"/><path id="Path_436" data-name="Path 436" class="cls-3" d="M1047.15-165.18c4.46-32.07,8.76-62.67,15-91.24l-1.34-2.08c-6.52,29.17-10.9,60.38-15.45,93.12-11,79.59-22.49,161.92-67.52,223.66-19.81,27.14-52.67,48.49-81.75,53.1C861.07,117,810.85,107.06,761.8,84.9c-53.9-24.35-97.38-59-122.49-97.69-20.92-32.21-28.38-65.81-22.2-100C641.24-246,811.09-363,966.71-403.44l-1-1.56c-156,40.68-326.06,158.14-350.31,292-6.26,34.58,1.3,68.64,22.46,101.22C692,71.54,823.57,124.7,896.41,113.1c29.52-4.69,62.83-26.33,82.9-53.81C1024.59-2.81,1036.06-85.35,1047.15-165.18Z"/><path id="Path_437" data-name="Path 437" class="cls-3" d="M1012.93-329.17C1038.57-289.7,1029.84-215,1022.4-174c-10.55,58-30.89,118.6-50.58,150.84C940.34,28.48,893,59.21,838.65,63.5,781.69,68,725.27,42.21,683.88-7.16c-34.28-40.92-39.6-93.27-15.38-149.79,18.66-43.51,54.79-87.88,99.12-121.76,85.38-65.23,194.82-106.38,238.87-58.77A62.34,62.34,0,0,1,1012.93-329.17ZM675.26-21.74A138.6,138.6,0,0,0,685.2-8.31c41.07,48.94,96.93,74.51,153.33,70.07C892.31,57.53,939.14,27.07,970.34-24c19.59-32.09,39.8-92.47,50.34-150.23,7.41-40.76,16.09-115-9.22-154a58.24,58.24,0,0,0-6.26-8.07c-43.34-46.86-151.77-5.81-236.53,58.94-44.11,33.7-80,77.85-98.56,121.08-21.39,49.89-19.6,96.42,5.15,134.53Z"/><path id="Path_438" data-name="Path 438" class="cls-3" d="M1862.66,975.84c-71.86,12.86-135.41,17.9-205.68,3.89-36.1-7.19-70.28-22.79-103.31-37.87-32-14.6-65.06-29.7-100.31-37.51-18.09-4-36.88-5.9-55.07-7.75-56-5.66-108.94-11-148.63-72.1A215.45,215.45,0,0,1,1238,804.14c-31.81-63.32-2-117.67,26.83-170.21,5.72-10.45,11.63-21.23,17-31.91,4.11-8.16,8.26-21.27,13.07-36.41,10.56-33.13,23.7-74.34,42.64-82.69,20.28-9,50.13,19.65,74.11,42.64l7.65,7.3c65.93,62.12,124.25,97,206,77.56l-1-1.55c-80.72,18.93-138.44-15.71-203.79-77.29-2.46-2.31-5-4.76-7.64-7.3-24.37-23.35-54.67-52.41-76-43-19.68,8.71-32.95,50.33-43.61,83.81-4.81,15.07-9,28.08-13,36.13-5.35,10.66-11.23,21.42-17,31.84-29,53-59,107.71-26.82,171.84a211.13,211.13,0,0,0,11.69,20.53c40.14,61.8,96,67.42,149.91,72.89,18.14,1.83,36.89,3.74,54.88,7.71,35.06,7.77,68,22.84,100,37.4,33.13,15.11,67.39,30.77,103.71,38,70.75,14.13,134.71,9,207.06-4Z"/><path id="Path_439" data-name="Path 439" class="cls-3" d="M1843.83,946.85c-68.07,13.17-140.23,20.22-211.4-5.05-27.5-9.78-52.1-25.29-78.17-41.7-22.14-14-45-28.4-71-39.94-25.39-11.33-54.75-13.91-83.16-16.39-37-3.25-71.91-6.29-99.43-26.8a84,84,0,0,1-20.58-21.8c-17.63-27.14-19.95-64.81-6.57-106,15.68-48.11,49.72-89.68,84.73-103.42,28-11,59,9,89,28.36,16,10.34,31.1,20.11,45.53,25.12,53,18.49,95.45,9,149.14-3a.19.19,0,0,1,.1,0l-1-1.56c-53.15,11.91-95.23,21.25-147.65,3-14.23-5-29.25-14.65-45.17-24.93-30.32-19.6-61.66-39.84-90.52-28.55-35.49,13.93-70,55.94-85.78,104.54-13.55,41.77-11.16,79.92,6.76,107.51a86.83,86.83,0,0,0,21,22.25c27.94,20.78,64.75,24,100.33,27.12,28.24,2.48,57.46,5,82.6,16.23,25.81,11.52,48.67,25.91,70.75,39.85,26.15,16.46,50.84,32,78.52,41.86,71.81,25.5,144.47,18.3,213,5Z"/><path id="Path_440" data-name="Path 440" class="cls-3" d="M1826.83,920.69c-88.91,17.61-158.14,9.11-216.82-26.44-25.78-15.65-47.62-36.8-68.76-57.22-25.48-24.69-49.58-48-78.1-59.36-12.91-5.15-30.63-5.41-49.37-5.68-32.34-.46-65.78-1-79.76-26.08-11-19.69,2.09-51.94,26.87-66.34,26.76-15.52,53.62-3.36,79.61,8.45,14.35,6.51,29.22,13.24,43.71,15,48.63,6.05,86.78-9.27,127.19-25.51,14.94-6,30.28-12.14,46.33-17.2l-1-1.53c-15.92,5.06-31.16,11.17-46,17.12-40.18,16.15-78.14,31.39-126.3,25.39-14.26-1.77-29-8.46-43.21-14.91-26.4-11.95-53.69-24.33-81.23-8.34-25.53,14.81-38.93,48.21-27.53,68.69.49.87,1,1.71,1.53,2.53,15.26,23.49,48,24,79.73,24.43,18.59.28,36.14.53,48.76,5.54,28.21,11.26,52.16,34.46,77.54,59,21.18,20.5,43.08,41.72,69.07,57.44,59.24,35.91,129.05,44.43,218.75,26.55Z"/><path id="Path_442" data-name="Path 442" class="cls-3" d="M1612.48,590.71c-84.7,14.58-140.9-46.47-215-139.59-20.53-25.76-43.56-46.76-65.84-67-20.72-18.86-40.31-36.64-56.52-57-10.52-13.14-20.65-27.25-30.13-41.84-88.25-135.86-116.52-308.88-100.44-414.83l-1.44-2.21c-16.75,106.15,11.38,281,100.41,418,9.51,14.64,19.69,28.77,30.21,42,16.32,20.46,35.94,38.3,56.7,57.22,22.25,20.21,45.25,41.14,65.67,66.81,74.7,93.87,131.35,155.36,217.37,140.08Z"/><path id="Path_444" data-name="Path 444" class="cls-3" d="M1594.58,563.15C1526.32,567,1481,504.26,1429,432.39c-5.63-7.81-11.36-15.75-17.22-23.72-20.3-27.65-44.85-53-68.59-77.58-20.8-21.52-40.44-41.88-55.5-62-8.44-11.26-16.56-22.88-24.18-34.61-65.25-100.45-99-219.53-92.5-323.47l-1.6-2.47c-7.19,104.9,26.69,225.4,92.63,326.9,7.63,11.75,15.79,23.44,24.25,34.72,15.11,20.17,34.8,40.54,55.66,62.1,23.68,24.52,48.19,49.88,68.41,77.42,5.86,8,11.57,15.88,17.22,23.71,52.54,72.68,98.39,136.06,168.13,131.43Z"/><path id="Path_457" data-name="Path 457" class="cls-3" d="M1644,483.18c-68.26,3.87-113.63-58.9-165.6-130.77-5.63-7.8-11.36-15.74-17.22-23.72-20.3-27.64-44.85-53-68.59-77.58-20.8-21.51-40.44-41.88-55.5-62-8.45-11.26-16.56-22.89-24.18-34.61-65.25-100.45-99-219.53-92.5-323.47l-1.61-2.47c-7.19,104.9,26.7,225.4,92.63,326.89,7.63,11.75,15.79,23.44,24.26,34.73,15.11,20.16,34.8,40.54,55.66,62.09,23.68,24.53,48.18,49.89,68.41,77.42,5.86,8,11.57,15.89,17.22,23.72,52.54,72.67,98.39,136.05,168.13,131.42Z"/><path id="Path_458" data-name="Path 458" class="cls-3" d="M1713.49,450.15c-68.26,3.87-113.63-58.89-165.6-130.76-5.63-7.81-11.36-15.75-17.23-23.72-20.29-27.65-44.84-53-68.59-77.58-20.79-21.52-40.43-41.88-55.5-62-8.44-11.26-16.56-22.88-24.17-34.61-65.25-100.45-99-219.53-92.5-323.47l-1.61-2.47c-7.19,104.9,26.7,225.4,92.63,326.9,7.63,11.75,15.79,23.44,24.25,34.72,15.12,20.17,34.81,40.54,55.67,62.1,23.68,24.52,48.18,49.88,68.41,77.42,5.86,8,11.57,15.88,17.22,23.71,52.54,72.68,98.38,136.06,168.13,131.43Z"/><path id="Path_445" data-name="Path 445" class="cls-3" d="M1573.24,530.3c-49.2-9.16-81.74-56.7-118.79-110.82-9.7-14.2-19.75-28.86-30.54-43.6-19.2-26.14-43.15-51.7-66.27-76.42-27-28.85-55-58.72-74.5-88.8l-.36-.56c-64.87-100.42-78.59-199.56-80.88-251.46L1200-44.23c1.9,51.18,14.92,152.6,81.26,255.29l.37.56c19.63,30.22,47.6,60.11,74.7,89,23.1,24.7,47,50.22,66.13,76.28,10.79,14.7,20.81,29.37,30.52,43.52,37.69,55.09,70.75,103.38,121.53,111.86Z"/><path id="Path_456" data-name="Path 456" class="cls-3" d="M1622.7,450.32c-49.2-9.15-81.74-56.69-118.79-110.82-9.71-14.19-19.75-28.85-30.54-43.59-19.2-26.15-43.15-51.7-66.27-76.43-27-28.85-55-58.71-74.5-88.79l-.37-.57c-64.86-100.42-78.58-199.56-80.87-251.46l-1.86-2.86c1.9,51.18,14.91,152.59,81.26,255.28l.36.57c19.63,30.22,47.61,60.1,74.7,89,23.11,24.7,47,50.22,66.13,76.27,10.8,14.7,20.82,29.37,30.53,43.52,37.68,55.09,70.74,103.38,121.53,111.87Z"/><path id="Path_459" data-name="Path 459" class="cls-3" d="M1692.15,417.3c-49.21-9.16-81.74-56.7-118.79-110.82-9.71-14.2-19.75-28.86-30.54-43.6-19.2-26.14-43.15-51.7-66.27-76.42-27-28.85-55-58.72-74.5-88.79l-.37-.57c-64.86-100.42-78.59-199.56-80.87-251.46l-1.86-2.87c1.9,51.19,14.91,152.6,81.25,255.29l.37.56c19.63,30.22,47.6,60.11,74.7,89,23.1,24.69,47,50.21,66.13,76.27,10.8,14.7,20.81,29.37,30.53,43.52,37.68,55.09,70.74,103.38,121.53,111.86Z"/><path id="Path_446" data-name="Path 446" class="cls-3" d="M1551.91,497.46c-25.68-13.38-47.14-39.09-66.75-65.86-21.91-30-46.3-60.47-72.12-92.76-39.79-49.77-80.91-101.21-114.53-153C1250,111.24,1226.31,49.63,1225.2-5.5l-1.77-2.72c.37,56.16,24.11,118.86,73.6,195.05,33.68,51.84,74.82,103.31,114.63,153.11,25.82,32.29,50.21,62.77,72.08,92.7,20.4,27.87,42.91,54.69,70.09,67.77Z"/><path id="Path_455" data-name="Path 455" class="cls-3" d="M1601.37,417.49c-25.68-13.38-47.14-39.1-66.75-65.87-21.91-29.94-46.3-60.47-72.12-92.76-39.79-49.76-80.91-101.21-114.53-153-48.48-74.63-72.2-136.25-73.31-191.37l-1.77-2.73c.37,56.17,24.11,118.87,73.6,195.06,33.68,51.84,74.82,103.31,114.63,153.1,25.82,32.3,50.21,62.77,72.08,92.71,20.4,27.86,42.91,54.68,70.09,67.77Z"/><path id="Path_460" data-name="Path 460" class="cls-3" d="M1670.82,384.46c-25.68-13.38-47.15-39.09-66.75-65.86-21.91-30-46.3-60.47-72.12-92.76-39.79-49.77-80.92-101.21-114.54-153-48.48-74.63-72.2-136.24-73.3-191.37l-1.77-2.72c.37,56.17,24.11,118.86,73.6,195.05,33.67,51.84,74.82,103.31,114.63,153.11,25.81,32.29,50.21,62.77,72.08,92.71,20.4,27.86,42.91,54.68,70.09,67.76Z"/><path id="Path_448" data-name="Path 448" class="cls-3" d="M1362.65,1053.66c-25-.28-46.85,14.22-61.64,40.84-18.53,33.39-20.38,77.26-4.29,102a51.91,51.91,0,0,0,5.14,6.67c15.5,16.78,39.11,27.17,63.13,27.8,16.35.46,40.51-3.47,62.6-24.7,24.21-23.28,15.05-78.07-8.7-114.63h0C1403.11,1067.38,1383.12,1053.88,1362.65,1053.66Zm53.29,39.92c22.52,34.68,31.84,88.47,9.21,110.22-21.19,20.36-44.36,24.13-60,23.71-23.11-.6-45.77-10.59-60.67-26.68a49.58,49.58,0,0,1-4.8-6.2c-15.44-23.79-13.52-66.11,4.44-98.46,8.18-14.74,26.64-39.37,58.5-39,19.29.2,38.23,13.15,53.36,36.44Z"/><path id="Path_449" data-name="Path 449" class="cls-3" d="M1678.5,1009.62c63.88,7.73,129.14,6.81,204.25-2.86l-2.1-3.23c-74.1,9.42-138.59,10.26-201.7,2.63-40.66-4.9-79.56-17.2-117.15-29.09-30.57-9.68-59.45-18.8-88.68-24-18.35-3.27-36.7-2-54.41-.77-19.76,1.38-38.41,2.67-56-2.11-48.51-13.24-91.67-62.17-103.74-76.84a275.17,275.17,0,0,1-18.27-24.83c-56.16-86.45-25.2-158.85,4.7-228.87,18.54-43.39,36.05-84.38,33.25-127.51-1.95-29.84-10.11-56.06-24.3-77.91-39-60.07-116.18-78.91-178.13-94-4-1-7.91-1.93-11.76-2.9-74-18.34-127.54-37.51-168.5-60.37C871.16,243.08,846.38,227,820.13,210c-27.45-17.85-55.83-36.25-84.81-52.29-14.63-8.12-30.63-15.85-47.56-24C635.05,108.24,575.3,79.43,543.21,30A147.92,147.92,0,0,1,527.88-1C486.34-119.08,563.42-287.7,699.75-376.91c22.1-14.43,47.09-28.45,73.57-43.27,44.61-24.94,90.54-50.7,129.14-82.15l-1.9-2.92c-38.41,31.37-84.36,57.1-128.92,82.05-26.56,14.83-51.57,28.86-73.82,43.39C633.69-337.87,578.1-274,545.34-204.78,511-132.19,503.62-59.42,524.6.14a149.34,149.34,0,0,0,15.68,31.78c32.61,50.19,92.8,79.25,145.93,104.89,16.88,8.16,32.86,15.86,47.38,23.94,28.87,16,57.23,34.37,84.59,52.14,26.3,17.06,51.17,33.18,76,47.06,41.24,23,95.07,42.31,169.36,60.71,3.85,1,7.78,1.92,11.76,2.89,61.39,15,137.78,33.64,176,92.55,13.87,21.34,21.86,47,23.75,76.25,2.73,42.29-14.58,82.91-32.95,125.87-30.3,70.88-61.6,144.19-4.45,232.17a287.7,287.7,0,0,0,18.51,25.14c12.24,14.87,56,64.48,105.52,78,18.19,5,37.14,3.63,57.18,2.24,17.53-1.22,35.66-2.49,53.57.73,29,5.21,57.79,14.29,88.22,23.94C1598.48,992.34,1637.52,1004.68,1678.5,1009.62Z"/><path id="Path_450" data-name="Path 450" class="cls-3" d="M2033.27,1238.48c-9.51,2.51-19.7,5.71-30.26,9.07-51.72,16.42-110.32,35-141.29-12.65l-.51-.78c-17.2-27.17-9.72-52.37-2.5-76.71,7.1-23.86,14.38-48.48-3.09-73.45-22-31.26-95.5-36-144.17-39.08-9.9-.64-18.48-1.18-25.34-1.87-13.57-1.38-25.83-3.11-37.69-4.79-15.87-2.25-30.85-4.38-48.56-5.68-2.07-.15-4.33-.32-6.68-.52-25.06-2.06-62.94-5.16-83.09,12.76-22.16,19.68-14.52,51.81-6.43,85.83,8.51,35.82,17.33,72.82-8.05,98-36.21,36-104.77,33.88-127.3,33.18-20.79-.64-84-2.6-110.53-42.82l-.29-.45c-25.56-39.35-8.22-87.13,8.53-133.33,14.19-39.1,28.88-79.53,18-115.29-9.38-30.84-23.58-54.81-34.9-72.23-5.95-9.17-12.11-18-18.07-26.51s-11.44-16.38-16.76-24.57c-13.11-20.19-27.07-45.09-31.07-76.71-6.28-49.74,11.79-97.19,29.24-143.07,24.17-63.55,47-123.59,6.82-185.48A191.1,191.1,0,0,0,1190,406.91c-33.54-31.76-92.3-49.55-144.17-65.28-10.54-3.2-20.52-6.2-30.07-9.28-85.5-27.46-146.3-66.76-216.68-112.32-37.43-24.19-76.11-49.21-121.83-74.51-11.7-6.44-24.83-12.68-38.69-19.24-46-21.85-98.24-46.63-125.93-92.92-29.93-50-26.9-120.72,9.21-216.2,32-84.63,75.92-147,134.26-190.67,33.51-25.07,68.82-46.36,102.94-66.95,47.66-28.74,92.9-56.06,125.46-89.49l-1.94-3C850.3-499.6,805-472.23,757.26-443.44c-34.18,20.63-69.55,41.95-103.21,67.16-58.89,44.07-103.19,106.94-135.44,192.2-36.54,96.56-39.46,168.27-8.93,219.25,28.26,47.17,81,72.22,127.38,94.23,13.84,6.58,26.9,12.78,38.5,19.21,45.63,25.2,84.25,50.18,121.63,74.37,70.6,45.64,131.57,85.08,217.5,112.71,9.59,3.08,19.57,6.08,30.12,9.28,51.5,15.61,109.9,33.28,142.8,64.48a188.44,188.44,0,0,1,28.72,33.84c39.24,60.41,16.7,119.64-7.14,182.32-17.63,46.29-35.82,94.18-29.44,144.75,4.09,32.33,18.25,57.67,31.58,78.2,5.35,8.23,10.93,16.2,16.83,24.66s12.11,17.27,18,26.39c11.2,17.24,25.22,40.94,34.47,71.39,10.55,34.62-3.94,74.5-17.91,113-17.07,47-34.72,95.64-8.22,136.43l.3.47c27.5,41.71,92.1,43.71,113.32,44.37,22.93.7,92.61,2.87,129.93-34.22,26.75-26.58,17.73-64.58,9-101.3-7.83-33-15.24-64.14,5.32-82.42,19-16.9,56-13.88,80.49-11.88l6.72.53c17.58,1.29,32.51,3.4,48.33,5.64,11.91,1.69,24.18,3.44,37.82,4.81,7,.69,15.54,1.24,25.48,1.89,48,3.07,120.53,7.71,141.56,37.6,16.53,23.52,9.78,46.3,2.6,70.46-7.46,25.1-15.18,51.06,2.87,79.58l.52.81c32.42,49.9,95,30,145.28,14.07,11-3.49,21.48-6.81,31.23-9.33Z"/></g><g id="Group_385" data-name="Group 385"><path id="Path_430-2" data-name="Path 430-2" class="cls-3" d="M-250.41,663.65c18.63-2.56,39.83-7.52,62.07-12.76,34.07-8,69.3-16.33,99.61-16.94,40.82-.83,77.42,15.4,116.2,32.58,27.25,12.08,55.45,24.57,85.88,31.08,31.46,6.75,68.35,9.81,107.42,13,33.86,2.79,68.85,5.69,100.16,11.21,7.69,1.36,16.08,2.7,25,4.12,58.6,9.35,138.89,22.14,165.62,64.41a114.33,114.33,0,0,1,6.79,12.38c22.44,48.12.86,98.15-20,146.52-13.09,30.4-26.64,61.86-28.71,92.09-2,28.77,6.43,63.3,15.32,99.86,10.49,43.18,21.37,87.8,16.24,127.43-3.54,27.29-15.2,54.67-26.47,81.12-20,46.92-40.71,95.43-17.22,145.8a146.27,146.27,0,0,0,23.73,35.19c21,23.62,55.9,44,89.61,63.66,16.69,9.75,33.92,19.81,48.87,30,43.28,29.42,81.73,64.76,119,98.9,45.22,41.51,92,84.46,147.31,116.54,13.43,7.78,30.12,15,47.79,22.71,39.56,17.18,80.47,35,93,61.71l.27.6c9.46,21.12,1.15,54.69-5.52,81.63l-1.24,5.06c-18.38,75-45.28,161.8-105.61,237.28-37,46.29-100.08,83.15-161.08,118.81-63.67,37.2-124,72.56-154.87,116.92l.71,1.53c30.5-44.4,91.08-79.83,154.93-117.15,61.13-35.72,124.34-72.67,161.5-119.17,60.5-75.73,87.5-162.74,105.92-237.88l1.25-5c6.71-27.2,15.07-61,5.42-82.63l-.29-.62c-12.73-27.3-53.89-45.18-93.72-62.46-17.63-7.68-34.29-14.91-47.63-22.66-55.18-32-101.88-74.86-147.06-116.33-37.24-34.2-75.76-69.53-119.12-99-15-10.16-32.25-20.26-48.94-30-33.62-19.63-68.38-39.9-89.24-63.35a145.41,145.41,0,0,1-23.49-34.84c-23.2-49.75-2.67-98,17.23-144.57,11.33-26.54,23-54,26.58-81.52,5.15-39.86-5.74-84.65-16.28-128-8.85-36.43-17.23-70.85-15.29-99.4,2.06-30,15.57-61.3,28.62-91.58,21-48.69,42.65-99,19.92-147.76a111.58,111.58,0,0,0-6.87-12.56c-27.09-42.85-107.75-55.71-166.66-65.09-8.9-1.44-17.29-2.78-25-4.13-31.38-5.53-66.41-8.43-100.3-11.22-39-3.24-75.85-6.29-107.24-13-30.25-6.48-58.37-18.94-85.58-31-38.9-17.26-75.69-33.55-116.84-32.71-30.47.62-65.79,8.94-99.92,17-22.38,5.28-43.76,10.29-62.41,12.81Z"/><path id="Path_431-2" data-name="Path 431-2" class="cls-3" d="M-240.51,684.88c15.52-3,31.19-6.72,46.48-10.41,36.79-8.86,74.81-18,110-15.85C-45,661-14.35,682,15.33,702.2c26.4,18,51.32,35,81.64,40,19.88,3.28,44.3.53,67.95-2.12,12.57-1.4,25.57-2.87,37.88-3.44,30.55-1.43,62.57.21,103.87,5.29,4.6.56,9.44,1.13,14.45,1.71,59.19,6.92,140.28,16.37,169.26,66.63,1.56,2.7,3,5.47,4.3,8.23,21,45.06,2.08,88.29-18,134-13.52,30.88-27.5,62.81-27.81,95.14-.26,27.94,9.06,60.18,18.9,94.32,11.77,40.63,23.9,82.69,19.91,119.45-3.7,34.42-18.92,65.45-33.62,95.43-19.92,40.61-38.74,79-27.63,121.7a168.35,168.35,0,0,0,10.29,29c22.46,48.18,63,67.93,106,88.83,14.58,7.11,29.66,14.45,44.32,23.06,52.61,31,102.23,75,150.19,117.51,40.59,36,78.95,70,118.8,96.56,11.72,7.83,24.91,15.46,38.85,23.52,40.22,23.28,81.82,47.37,97.52,80.55l.19.4c22.72,48.71-1.54,119-16.05,161-18.42,53.43-44.22,100.43-76.67,139.8C861,2286,795,2321.87,731.05,2356.61c-57.37,31.19-111.78,60.8-146.64,97.34l.71,1.5c34.67-36.58,89.18-66.24,146.66-97.49,64-34.82,130.27-70.8,169.27-118.12,32.56-39.48,58.44-86.65,77-140.25,14.57-42.22,39-112.9,16-162.18l-.2-.43c-15.93-33.59-57.71-57.77-98.14-81.17-13.92-8.07-27.08-15.69-38.78-23.49-39.75-26.5-78.06-60.46-118.6-96.42-48-42.61-97.7-86.67-150.44-117.7-14.71-8.64-29.83-16-44.44-23.1-42.67-20.78-83-40.42-105.23-88.12a169.14,169.14,0,0,1-10.2-28.75c-10.95-42.18,7.72-80.28,27.51-120.63,14.77-30.1,30.06-61.24,33.81-95.93,4-37.08-8.2-79.27-20-120.05-9.83-34-19.14-66.17-18.86-93.88.28-32,14.2-63.8,27.66-94.54,19.3-44.06,39.27-89.62,18-135.3-1.3-2.8-2.78-5.61-4.35-8.35-29.38-50.9-110.89-60.42-170.43-67.36-5-.58-9.85-1.15-14.45-1.71-41.37-5.11-73.46-6.75-104.1-5.31-12.37.58-25.42,2-38,3.45-24.6,2.77-47.84,5.38-67.51,2.14-30-5-54.79-21.89-81-39.8-29.83-20.37-60.65-41.42-100.12-43.86-35.4-2.17-73.54,7-110.45,15.89-15.38,3.71-31.17,7.47-46.78,10.47Z"/><path id="Path_432-2" data-name="Path 432-2" class="cls-3" d="M-232.7,701.63c90.4-20.3,198.93-41.57,240.59,47.77.85,1.82,1.68,3.68,2.46,5.57,6.53,15.75,4.81,33.49,3.14,50.64-1.85,19.29-3.77,39.24,6.1,56.22,8,13.78,29.18,26.43,54,32.22,22.8,5.34,43.07,3.71,55.58-4.48,14.67-9.58,16.68-27.68,18.76-46.81,2.33-21.2,5-45.21,25.71-61.35,18.33-14.26,58.61-23.25,88.94-24.75,56.94-2.83,173.61,6.74,207.71,63.13a104.32,104.32,0,0,1,5.32,10c21.21,45.47.59,90.76-19.31,134.57-14.07,30.9-27.36,60.11-26.1,88.5,1.09,24.83,11.22,54.25,21.95,85.4,12.77,37,26,75.35,24.32,108-2,38.5-19.62,74-36.69,108.45-20.61,41.45-40,80.59-31.83,122.21a159.67,159.67,0,0,0,11.69,36.29c24.87,53.32,76.58,78.49,122.2,100.68,9.85,4.81,19.18,9.35,28.19,14.1,57.77,30.47,110.14,75.83,160.8,119.68,34.76,30.13,70.73,61.26,108.26,87.49,9.8,6.86,20.67,13.65,32.15,20.83,37.42,23.38,79.82,49.88,99.73,88.37,22.73,43.84,6.62,98.09-5.1,137.39l-.55,1.89c-19,63.75-62.52,153-162.07,216.22-30,19-65.38,36.33-99.64,53.13-50.4,24.64-98.22,48.08-130.57,76.53l1.33,2.87c32.07-28.44,80-52,130.57-76.69,34.35-16.81,69.85-34.18,100-53.28,79.41-50.45,135.9-125.81,163.32-217.92l.59-1.91c11.86-39.75,28.19-94.52,4.89-139.64-20.28-39.23-63.07-65.94-100.83-89.55-11.44-7.17-22.3-13.93-32-20.74-37.43-26.14-73.31-57.22-108-87.27-50.78-44-103.31-89.47-161.35-120.08-9.1-4.81-18.4-9.35-28.28-14.15-47.39-23.06-96.37-46.92-120.77-99.26A153.9,153.9,0,0,1,411,1476.32c-8-40.6,11.18-79.31,31.55-120.29,17.21-34.67,35-70.54,37-109.65,1.71-33.26-11.62-71.84-24.49-109.18-10.67-30.93-20.73-60.14-21.78-84.53-1.21-27.68,11.91-56.55,25.8-87.11,20.23-44.44,41.1-90.37,19.3-137.11a106.81,106.81,0,0,0-5.46-10.24C438.07,760.6,320,750.76,262.43,753.63c-30.81,1.51-71.87,10.73-90.71,25.39C150,796,147.28,820.65,144.89,842.43c-2.11,19.21-3.94,35.8-17.38,44.59-11.67,7.62-31.54,9.13-53.2,4.06-24-5.61-44.47-17.7-52.07-30.78-9.4-16.18-7.61-34.73-5.68-54.42,1.66-17.51,3.44-35.63-3.39-52.07-40.88-98.26-153.76-76-247.19-55Z"/><path id="Path_433-2" data-name="Path 433-2" class="cls-3" d="M407,1747.09c1,5.29,1.94,10.26,2.74,14.92,21,124.84-2.58,292.73-33,369l.88,1.88c31-76.88,54.73-245.34,33.6-371.21-.8-4.65-1.72-9.64-2.75-14.92-6.33-33.62-14.26-75.47,8.19-87.84,19.36-10.66,96.11,11.13,132.9,25.19,64.22,24.53,123.3,72.19,175.44,114.23,18.28,14.76,35.55,28.69,52.63,41.43,35.83,26.69,76.42,56.94,108.06,94A142.68,142.68,0,0,1,906.48,1966c20,42.92,13.46,86.37,7.76,108.46-37.09,143.87-196.79,217.95-373.54,285.78l.64,1.36c85.54-32.83,173-69.66,241-115.72,72.82-49.31,116.44-105.28,133.42-171.06,5.74-22.27,12.37-66.12-7.84-109.47a144.2,144.2,0,0,0-21-32.48c-31.77-37.18-72.43-67.5-108.31-94.23-17.06-12.71-34.34-26.64-52.61-41.4-52.2-42.12-111.37-89.87-175.84-114.47C516.9,1670,436.92,1646.08,416,1657.64,392.55,1670.54,400.59,1713,407,1747.09Z"/><path id="Path_434-2" data-name="Path 434-2" class="cls-3" d="M461.38,1821.8c-4.59,85.68-26.77,218.7-63.22,302.6l.84,1.8c37-84.44,59.3-218.09,63.92-304.33,2.43-45.22,11.46-71.24,29.28-84.35,15.54-11.43,38.35-13.15,69.75-5.26,50.08,12.57,105.45,51.68,159,89.47l6.49,4.59c56.22,39.69,126.23,89,155.23,151.25,16.24,34.81,18,69.38,5.3,105.68-20,57.38-66,109.3-136.69,154.33-56.86,36.18-129.58,68.43-221.89,98.34l.65,1.4c92.37-29.94,165.14-62.21,222.07-98.46,71-45.21,117.19-97.39,137.3-155.1,12.8-36.71,11-71.67-5.37-106.83-29.18-62.59-99.36-112.09-155.72-151.87l-6.48-4.56c-53.66-37.91-109.15-77.08-159.5-89.73-31.87-8-55.11-6.21-71,5.5C473.06,1749.7,463.84,1776.08,461.38,1821.8Z"/><path id="Path_435-2" data-name="Path 435-2" class="cls-3" d="M485.31,1940.13c-2.61,8.83-5.09,17.17-7.63,25.17-16.41,51.51-32.66,98-51.95,148.36l.89,1.9c19.52-50.93,35.95-97.78,52.52-149.79,2.55-8,5-16.39,7.64-25.22,20.94-71,47.06-159.33,144.15-132.92,55.11,15,158.92,78.95,205.18,135.86a176.6,176.6,0,0,1,23.2,36.43c9.35,20.07,13.4,40.52,12.05,60.81-8.64,131.75-182.83,227.57-355.6,266l.63,1.37c86.55-19.26,167.82-51.57,230.06-91.69,78.51-50.63,122.21-111.33,126.46-175.56,1.35-20.55-2.75-41.27-12.21-61.55a178.27,178.27,0,0,0-23.41-36.76c-46.42-57.09-150.64-121.28-206-136.34C532.8,1779.35,506.44,1868.49,485.31,1940.13Z"/><path id="Path_436-2" data-name="Path 436-2" class="cls-3" d="M464.13,2067c-7.78,27.24-15.23,53.22-24.16,77.2l.91,2c9.2-24.47,16.8-51,24.73-78.77,19.26-67.6,39.21-137.51,85.74-185.5,20.46-21.1,51.53-35.59,77.28-36,31-.56,73.34,14.13,113.13,39.31,43.72,27.65,77.16,63,94.19,99.54,14.2,30.45,16.57,60.46,7.06,89.29-37.14,112.52-198.52,193.16-338.23,209.19l.69,1.47c140.07-16.23,301.69-97.25,339-210.19,9.64-29.19,7.24-59.62-7.12-90.41-36.75-78.81-144.24-140.9-208.74-139.72-26.14.47-57.63,15.15-78.37,36.51C503.45,1929.09,483.46,1999.18,464.13,2067Z"/><path id="Path_437-2" data-name="Path 437-2" class="cls-3" d="M473.78,2213.19c-17.4-37.31-.73-101,10.71-135.59,16.21-48.93,41.21-99,62.2-124.49,33.55-40.86,78.27-61.71,125.9-58.8,49.88,3,95.6,32.26,125.44,80.06C822.74,2014,821,2060,793.11,2106c-21.47,35.42-58.17,69.45-100.69,93.4-81.9,46.09-181.72,68.4-214.06,21.8A54.5,54.5,0,0,1,473.78,2213.19Zm329.94-225.14a120.73,120.73,0,0,0-7-12.85c-29.61-47.4-74.88-76.35-124.27-79.38-47.1-2.89-91.38,17.79-124.63,58.25-20.88,25.4-45.74,75.24-61.9,124-11.38,34.41-27.94,97.65-10.77,134.47a50.62,50.62,0,0,0,4.44,7.77c31.83,45.86,130.75,23.51,212-22.24,42.32-23.82,78.81-57.68,100.13-92.87C816.39,2064.6,820.52,2024.07,803.72,1988.05Z"/><path id="Path_438-2" data-name="Path 438-2" class="cls-3" d="M-103.22,979.3c63.81-2.39,119.46,1,178.62,21.68,30.4,10.63,58.1,28.31,84.88,45.4,25.94,16.54,52.73,33.65,82.31,44.71,15.18,5.67,31.22,9.61,46.75,13.42,47.83,11.73,93,22.8,120,80.57a189.25,189.25,0,0,1,7.58,19.05c19.84,58.72-12.61,102.17-44,144.16-6.23,8.35-12.66,17-18.58,25.57-4.55,6.57-9.74,17.41-15.75,30-13.18,27.41-29.58,61.5-47,66.43-18.65,5.3-41-23.13-59-46l-5.74-7.26c-49.53-61.84-157.09-107.6-230.27-100.73l.68,1.46c72.21-6.56,179.29,38.93,228.38,100.23,1.85,2.3,3.77,4.74,5.73,7.26,18.26,23.19,41,52.06,60.61,46.49,18.11-5.15,34.67-39.59,48-67.28,6-12.47,11.18-23.24,15.63-29.72,5.93-8.58,12.34-17.18,18.58-25.51,31.59-42.33,64.25-86.1,44.16-145.58a186.51,186.51,0,0,0-7.62-19.2c-27.24-58.43-74.91-70.1-121-81.41-15.49-3.79-31.5-7.73-46.6-13.36-29.42-11-56.16-28.07-82-44.56-26.86-17.14-54.63-34.86-85.21-45.54C16.36,978.7-39.67,975.37-103.92,977.8Z"/><path id="Path_439-2" data-name="Path 439-2" class="cls-3" d="M-90.44,1006.7c60.56-3.11,123.93-.43,182.49,30.13,22.63,11.82,42.05,28.26,62.63,45.65,17.48,14.79,35.55,30.09,56.61,43.24,20.61,12.91,45.73,18.72,70,24.33,31.62,7.32,61.52,14.21,82.86,35.33a73.38,73.38,0,0,1,15.17,21.39c12,25.66,9.38,58.57-7.23,92.63-19.43,39.77-54,71.62-86,79.26-25.63,6.1-50-15-73.59-35.4-12.6-10.91-24.49-21.21-36.38-27.31-43.7-22.48-135.69-13.79-183.66-9.92h1.56l.69,1.47c47.49-3.84,137.52-12.41,180.7,9.81,11.73,6,23.55,16.25,36.09,27.1,23.88,20.67,48.56,42,74.93,35.76,32.44-7.75,67.43-39.94,87-80.1,16.82-34.53,19.4-67.87,7.23-94a75.89,75.89,0,0,0-15.47-21.84c-21.68-21.4-53.15-28.68-83.6-35.71-24.16-5.59-49.16-11.37-69.57-24.12-20.95-13.13-39-28.37-56.43-43.14-20.64-17.44-40.12-33.94-62.91-45.82-59.08-30.84-122.9-33.45-183.9-30.28Z"/><path id="Path_440-2" data-name="Path 440-2" class="cls-3" d="M-78.91,1031.44c79.16-4.42,138.09,11.37,184.58,49.32,20.43,16.69,36.77,37.67,52.59,57.93,19.06,24.49,37.1,47.61,60.41,60.94,10.56,6,25.87,8.41,42.07,10.93,27.95,4.34,56.86,8.84,65.91,32.31,7.11,18.39-8.14,44.73-31.36,54.19-25.06,10.18-46.85-3.63-67.92-17-11.64-7.39-23.69-15-36-18.36-41.39-11.16-76.29-2.54-113.28,6.6-13.67,3.39-73.73,16.1-88.24,18.52l.68,1.45c14.41-2.44,74.37-15.14,87.93-18.49,36.78-9.1,71.51-17.67,112.49-6.61,12.14,3.27,24.07,10.86,35.61,18.18,21.42,13.57,43.55,27.61,69.35,17.12,23.91-9.72,39.6-37,32.21-56.14-.31-.82-.65-1.61-1-2.38-10.36-22.21-38.7-26.62-66.09-30.87-16.06-2.51-31.24-4.87-41.55-10.75-23.07-13.18-41-36.19-60-60.55-15.85-20.33-32.23-41.38-52.82-58.17C59.7,1041.28.27,1025.39-79.6,1030Z"/><path id="Path_441-2" data-name="Path 441-2" class="cls-3" d="M-68.33,1050.67c64.54-5.58,158.59,18.45,194.46,95.38,1.12,2.4,2.17,4.87,3.16,7.33,7.37,18.46,7.55,34.13.47,47.95-15.38,30.11-91.52,51.72-131.42,62.26L-1,1265c40.12-10.61,116.49-32.37,132.13-63,7.17-14,7-30.58-.41-49.2-1-2.49-2.06-5-3.2-7.41C91.24,1067.59-5.9,1042.82-70.91,1048.59Z"/><path id="Path_442-2" data-name="Path 442-2" class="cls-3" d="M-2,1334.67c75.14-2.32,184.93,66.12,237.72,155.8,14.65,24.82,32,45.8,48.87,66.07,15.65,18.86,30.45,36.65,42,56.27,7.51,12.67,14.57,26.13,21,39.92,59.89,128.43,46.59,398.9,19.76,488.71l1,2.09c27.44-89.9,41.08-361.89-19.34-491.45-6.45-13.85-13.55-27.32-21.06-40.06-11.64-19.71-26.46-37.55-42.13-56.47-16.81-20.21-34.18-41.15-48.75-65.87C183.8,1399.28,73.67,1330.41-2.7,1333.16Z"/><path id="Path_451" data-name="Path 451" class="cls-3" d="M-17.25,1436.83c75.15-2.31,116.39,57.42,169.18,147.1,14.64,24.82,32,45.81,48.87,66.07,15.65,18.86,30.44,36.65,42,56.27,7.51,12.67,14.57,26.13,21,39.92,59.89,128.43,63.44,296.57,36.61,386.38l1,2.1c27.44-89.9,24.22-259.57-36.2-389.13-6.45-13.84-13.55-27.32-21.06-40-11.64-19.72-26.46-37.56-42.14-56.48-16.81-20.21-34.18-41.14-48.74-65.87-53.26-90.4-94.83-150.56-171.21-147.81Z"/><path id="Path_461" data-name="Path 461" class="cls-3" d="M-165.25,1410.72c75.15-2.32,116.39,57.41,169.18,147.09,14.64,24.82,32,45.81,48.87,66.08,15.65,18.86,30.45,36.64,42,56.27,7.51,12.66,14.57,26.12,21,39.91,59.89,128.43,74.55,314.72,47.71,404.53l1,2.1c27.44-89.9,13.12-277.72-47.3-407.28-6.45-13.84-13.55-27.32-21.06-40.05C84.5,1659.65,69.68,1641.81,54,1622.9c-16.8-20.22-34.17-41.15-48.74-65.88-53.26-90.4-94.83-150.56-171.21-147.81Z"/><path id="Path_443-2" data-name="Path 443-2" class="cls-3" d="M-58.13,1076c48.13-8.92,104.43,25.7,122.84,65.17,7.58,16.26,8.13,32.08,1.63,45.78-8,16.79-43.29,35.29-71,44.31l.66,1.41c28.32-9.17,63.41-27.65,71.71-45.08,6.71-14.11,6.17-30.4-1.6-47.07-18.7-40.09-76-75.21-124.9-65.94Z"/><path id="Path_444-2" data-name="Path 444-2" class="cls-3" d="M-5.5,1348.25c59.6,5,175.45,86,211.7,154.61,3.93,7.45,7.92,15,12,22.64,14.21,26.42,32.38,51.39,50,75.55,15.38,21.17,29.92,41.21,40.52,60.43,5.94,10.78,11.56,21.85,16.72,32.93,44.28,94.95,56.59,337.55,38.28,426.78l1.09,2.34c19-90,6.77-333.83-38-429.77-5.18-11.11-10.82-22.23-16.78-33-10.63-19.3-25.2-39.35-40.65-60.56-17.52-24.13-35.65-49.08-49.82-75.39-4.1-7.62-8.08-15.17-12-22.64-36.66-69.35-152.84-151-213.81-155.49Z"/><path id="Path_452" data-name="Path 452" class="cls-3" d="M-5.1,1462.88c59.59,5,91.25,64.86,127.5,133.44,3.93,7.45,7.92,15,12,22.64,14.21,26.42,32.38,51.39,50,75.56,15.39,21.17,29.92,41.2,40.52,60.42,5.94,10.79,11.56,21.85,16.73,32.93,44.28,95,35.72,257.42,17.4,346.66l1.09,2.33c19-90,27.64-253.69-17.1-349.64-5.17-11.1-10.82-22.22-16.77-33-10.64-19.3-25.21-39.35-40.65-60.57-17.52-24.12-35.66-49.07-49.82-75.39-4.11-7.62-8.09-15.17-12-22.63-36.65-69.36-68.64-129.84-129.61-134.33Z"/><path id="Path_1291" data-name="Path 1291" class="cls-3" d="M-233.71,1429c59.6,5,91.25,64.86,127.5,133.45,3.93,7.44,7.93,15,12,22.63,14.21,26.42,32.39,51.39,50,75.56,15.39,21.17,29.92,41.2,40.52,60.43C2.25,1731.89,7.86,1743,13,1754c44.28,95-44.87,117.23-63.18,206.46l1.08,2.34c19-90,108.23-113.5,63.49-209.45-5.17-11.1-10.82-22.22-16.77-33C-13,1701.05-27.56,1681-43,1659.78c-17.52-24.12-35.66-49.07-49.82-75.39-4.11-7.62-8.09-15.17-12-22.64-36.65-69.35-68.64-129.83-129.61-134.32Z"/><path id="Path_1292" data-name="Path 1292" class="cls-3" d="M-209.71,1449c59.6,5,91.25,64.86,127.5,133.45,3.93,7.44,7.93,15,12,22.63,14.21,26.42,32.39,51.39,50,75.56,15.39,21.17,29.92,41.2,40.52,60.43C26.25,1751.89,31.86,1763,37,1774c44.28,95-86,186.24-104.27,275.48l1.09,2.33c19-90,149.31-182.51,104.57-278.46-5.18-11.11-10.82-22.23-16.77-33C11,1721-3.56,1701-19,1679.78c-17.52-24.12-35.66-49.08-49.82-75.39-4.11-7.62-8.09-15.17-12-22.64-36.65-69.35-68.64-129.83-129.61-134.32Z"/><path id="Path_1293" data-name="Path 1293" class="cls-3" d="M-185.71,1459.39c59.6,5,91.25,64.86,127.5,133.44,3.93,7.45,7.93,15,12,22.64,14.21,26.42,32.39,51.39,50,75.56,15.39,21.17,29.92,41.2,40.52,60.42,6,10.79,11.56,21.85,16.73,32.93,44.28,95-78.51,194.35-96.82,283.58l1.09,2.33c19-90,141.87-190.61,97.12-286.56-5.17-11.11-10.82-22.23-16.77-33C35,1731.39,20.44,1711.35,5,1690.13c-17.52-24.13-35.66-49.08-49.82-75.39-4.11-7.62-8.09-15.17-12-22.64-36.65-69.35-68.64-129.83-129.61-134.32Z"/><path id="Path_1294" data-name="Path 1294" class="cls-3" d="M-166.24,1466.24c59.6,5,91.25,64.86,127.5,133.44,3.93,7.45,7.93,15,12,22.64,14.21,26.42,32.39,51.39,50,75.56,15.39,21.17,29.93,41.2,40.52,60.42,5.95,10.79,11.56,21.85,16.73,32.93,44.28,95-88.62,257.5-106.94,346.73l1.09,2.33c19-90,152-253.76,107.25-349.7-5.18-11.11-10.82-22.23-16.78-33-10.63-19.31-25.2-39.36-40.65-60.57C7,1672.86-11.18,1647.91-25.35,1621.6c-4.1-7.62-8.08-15.17-12-22.64C-74,1529.61-106,1469.12-167,1464.64Z"/><path id="Path_1295" data-name="Path 1295" class="cls-3" d="M-156.9,1454.86c59.6,5,91.25,64.86,127.51,133.44,3.92,7.45,7.92,15,12,22.64,14.22,26.42,32.39,51.38,50,75.55,15.39,21.17,29.93,41.21,40.53,60.43,5.94,10.78,11.55,21.84,16.72,32.93,44.28,95-78.32,283-96.63,372.21l1.08,2.33c19-90,141.68-279.25,96.94-375.2-5.18-11.1-10.82-22.22-16.77-33-10.64-19.3-25.21-39.35-40.65-60.57C16.29,1661.47-1.85,1636.52-16,1610.2c-4.11-7.62-8.09-15.17-12-22.63-36.65-69.36-68.64-129.84-129.61-134.33Z"/><path id="Path_1296" data-name="Path 1296" class="cls-3" d="M-140.76,1466.24c59.6,5,91.26,64.86,127.51,133.44,3.93,7.45,7.92,15,12,22.64,14.21,26.42,32.38,51.39,50,75.56,15.38,21.17,29.92,41.2,40.52,60.42,5.94,10.79,11.56,21.85,16.72,32.93,44.28,95-68.07,272.53-86.38,361.76l1.08,2.34c19-90,131.44-268.81,86.7-364.75-5.18-11.11-10.82-22.23-16.78-33C80,1738.24,65.4,1718.19,50,1697,32.43,1672.85,14.3,1647.9.13,1621.59c-4.1-7.62-8.08-15.17-12-22.64-36.65-69.35-68.64-129.84-129.61-134.32Z"/><path id="Path_445-2" data-name="Path 445-2" class="cls-3" d="M-9.5,1368.5c41.51,13.93,166.57,91,192.07,142.44,6.68,13.48,13.59,27.4,21.14,41.49,13.45,25,31.07,50,48.09,74.27,19.88,28.28,49,72.19,62.27,100.62l.25.53c43.95,94.89,46.43,358.48,42.09,403.71l1.26,2.71c4.59-44.57,3-310-41.95-407.07l-.25-.53c-13.32-28.57-42.47-72.5-62.42-100.85-17-24.21-34.58-49.23-48-74.13-7.56-14-14.45-28-21.14-41.41C158,1458,32.57,1380.14-10.39,1366.6Z"/><path id="Path_453" data-name="Path 453" class="cls-3" d="M-5.5,1486.5C36,1500.43,73.27,1553,98.77,1604.41c6.68,13.47,13.6,27.39,21.14,41.48,13.45,25,31.08,50,48.09,74.27,19.89,28.28,40.46,57.55,53.72,86l.25.53c44,94.88,3.08,284.51-1.27,329.74l1.27,2.71c4.59-44.56,46.34-236.07,1.39-333.1l-.25-.53c-13.32-28.57-33.9-57.87-53.85-86.22-17-24.21-34.58-49.22-48-74.12-7.56-14.05-14.45-28-21.14-41.42C74.2,1551.43,36.57,1498.13-6.39,1484.6Z"/><path id="Path_446-2" data-name="Path 446-2" class="cls-3" d="M-15.75,1391c20.61,14.72,140,86.61,153.7,112.18,15.33,28.62,44.29,56,62.72,87.11,28.4,48,82.12,126.77,104.94,175.69,32.89,70.55,47.28,308,41.52,355.91l1.2,2.58c6.53-48.7-7.74-287.11-41.33-359.14-22.85-49-76.58-127.85-105-175.83-18.43-31.12-47.4-58.45-62.69-87-14.28-26.62-128.66-95.34-150.61-110Z"/><path id="Path_454" data-name="Path 454" class="cls-3" d="M-5.5,1499.25c20.61,14.72,63.92,67.41,77.64,93,15.33,28.61,34.24,56,52.67,87.07,28.41,48,57.76,97.53,80.57,146.45,32.9,70.55-2.49,257.59-8.25,305.48l1.2,2.57c6.52-48.69,42-236.68,8.45-308.7-22.86-49-52.22-98.6-80.64-146.59-18.43-31.11-37.35-58.41-52.64-87-14.28-26.62-58.35-80.39-80.3-95Z"/><path id="Path_448-2" data-name="Path 448-2" class="cls-3" d="M339.36,972.82c21.58,3.27,42.31-6.62,58.36-27.87,20.13-26.66,27.07-64.43,16.15-87.85a44.9,44.9,0,0,0-3.64-6.4c-11.38-16.43-30.57-28.3-51.29-31.78-14.11-2.39-35.52-1.92-57.23,13.77C277.9,849.9,279.16,898.48,295.27,933h0C306,956,321.65,970.14,339.36,972.82Zm-41.3-41.08c-15.28-32.78-16.8-80.5,5.45-96.59,20.84-15.06,41.37-15.5,54.9-13.23,19.94,3.34,38.36,14.76,49.3,30.51a42.25,42.25,0,0,1,3.4,6c10.48,22.47,3.66,58.9-15.84,84.73-8.89,11.77-27.87,30.86-55.42,26.68-16.69-2.52-31.52-16-41.79-38.06Z"/><path id="Path_449-2" data-name="Path 449-2" class="cls-3" d="M60.41,972.48C6,958-50.62,950.84-116.85,950.06l1.42,3.06c65.33.87,121.3,8,175,22.3,34.64,9.2,66.82,24.59,97.93,39.47,25.3,12.11,49.21,23.53,73.89,31.63,15.49,5.07,31.54,6.21,47,7.3,17.29,1.21,33.59,2.36,48.28,8.65,40.4,17.38,71.83,65,80.5,79.2A245.24,245.24,0,0,1,420,1165.4c38.1,81.72,2.46,140.67-32,197.67-21.34,35.33-41.51,68.7-44.34,106.4-1.94,26.08,1.92,49.79,11.55,70.44,26.48,56.79,91,82.5,142.84,103.14,3.34,1.35,6.61,2.64,9.83,3.94,61.87,24.9,105.91,48,138.6,72.83,19.75,15,39.26,32,59.93,49.87,21.6,18.8,43.93,38.2,67.08,55.62,11.69,8.82,24.6,17.46,38.27,26.6,42.56,28.46,90.8,60.69,112.58,107.39a128.84,128.84,0,0,1,9.49,28.76c21.6,107.32-65.71,244-194.67,304.64-20.89,9.81-44.25,18.9-69,28.52-41.68,16.16-84.6,32.88-121.87,55.42l1.29,2.76c37.09-22.49,80-39.18,121.66-55.36,24.81-9.61,48.19-18.72,69.23-28.59,60.67-28.52,116.59-77,153.4-133,38.6-58.69,53.84-120.82,42.93-175a129.92,129.92,0,0,0-9.71-29.43c-22.13-47.45-70.72-80-113.62-108.64-13.62-9.13-26.53-17.74-38.12-26.5-23.06-17.37-45.38-36.75-66.92-55.48-20.69-18-40.27-35-60.09-50-32.93-25-77.19-48.23-139.3-73.22-3.22-1.31-6.51-2.61-9.83-3.94-51.35-20.47-115.25-45.93-141.21-101.61-9.41-20.18-13.21-43.39-11.28-68.94,2.79-37,22.73-70,43.88-105,34.88-57.71,70.92-117.39,32.14-200.56a249.33,249.33,0,0,0-13-24c-8.79-14.37-40.66-62.67-81.9-80.38-15.15-6.52-31.73-7.68-49.26-8.91-15.32-1.08-31.19-2.19-46.31-7.16-24.49-8-48.31-19.42-73.49-31.48C127.61,997.19,95.3,981.75,60.41,972.48Z"/><path id="Path_450-2" data-name="Path 450-2" class="cls-3" d="M-219,731c8.54-1,17.76-2.54,27.32-4.17,46.8-7.92,99.83-16.9,120.84,28.17l.34.74c11.6,25.63,2,46.54-7.18,66.75-9,19.8-18.36,40.24-6.27,64,15.21,29.76,78.34,42.79,120.11,51.42,8.5,1.77,15.87,3.28,21.73,4.71,11.58,2.84,22,5.84,32.06,8.74,13.47,3.88,26.18,7.55,41.37,10.83,1.78.38,3.7.8,5.72,1.27,21.45,4.84,53.89,12.13,73.53-.93,21.59-14.35,18.89-43.12,16-73.57-3-32.06-6.13-65.18,18.92-83.93,35.76-26.77,94.88-16.59,114.3-13.23,17.93,3.08,72.48,12.49,90.52,50.55l.2.43C467.88,880,447,919.25,426.9,957.23c-17.06,32.14-34.71,65.37-29.64,97.67,4.37,27.86,13.75,50.35,21.43,66.82,4,8.66,8.3,17,12.42,25.16s7.91,15.58,11.52,23.32c8.9,19.08,18,42.35,17.57,70.23-.62,43.85-22.06,82.75-42.76,120.36-28.68,52.1-55.79,101.32-28.51,159.82A167.74,167.74,0,0,0,410.07,1554c25.18,31.59,73.91,54.16,116.92,74.11,8.74,4,17,7.87,24.91,11.7,70.72,34.2,118.59,75.65,174,123.68,29.47,25.52,59.93,51.9,96.45,79.39,9.35,7,20,14,31.17,21.38,37.14,24.52,79.41,52.36,97.75,95.83,19.84,47,8.59,107.84-34.32,186.14-38.05,69.4-83.67,118.08-139.52,148.79-32.08,17.64-65.26,31.77-97.32,45.45-44.79,19.08-87.3,37.24-119.58,62.22l1.32,2.82c32-24.93,74.6-43.12,119.46-62.24,32.12-13.71,65.35-27.86,97.58-45.6,56.38-31,102.41-80,140.73-150,43.42-79.18,54.69-140.93,34.46-188.81-18.73-44.3-61.37-72.42-98.85-97.14-11.19-7.39-21.75-14.35-31-21.33-36.45-27.38-66.86-53.73-96.29-79.23-55.59-48.14-103.6-89.73-174.66-124.13-7.93-3.84-16.21-7.66-25-11.71-42.7-19.8-91.14-42.22-115.83-73.25a164.49,164.49,0,0,1-20.76-32.81c-26.63-57.11.11-105.66,28.4-157.06,20.91-37.94,42.51-77.2,43.14-121.78.39-28.5-8.79-52.18-17.83-71.58-3.63-7.78-7.5-15.36-11.57-23.41s-8.38-16.43-12.41-25.06c-7.6-16.29-16.85-38.52-21.15-66-4.92-31.27,12.49-64.05,29.29-95.74,20.51-38.64,41.72-78.61,23.74-117.17l-.21-.44c-18.74-39.48-74.45-49.08-92.75-52.24-19.77-3.4-79.86-13.77-116.7,13.82-26.42,19.76-23.23,53.77-20.11,86.64,2.76,29.52,5.38,57.41-14.66,70.74-18.55,12.33-50.22,5.2-71.17.48L132,959.22c-15.07-3.26-27.75-6.91-41.17-10.77-10.12-2.92-20.53-5.93-32.18-8.78-5.93-1.44-13.3-3-21.84-4.74-41.2-8.51-103.46-21.36-118-49.82-11.45-22.38-2.83-41.3,6.34-61.34,9.51-20.83,19.36-42.38,7.21-69.28l-.36-.77c-22-47.17-78.63-37.58-124.12-29.89-9.93,1.69-19.44,3.28-28.19,4.28Z"/></g></g></g></svg>