<svg xmlns="http://www.w3.org/2000/svg" xmlns:xlink="http://www.w3.org/1999/xlink" width="1366" height="2114" viewBox="0 0 1366 2114">
  <defs>
    <clipPath id="clip-Take_Action_bg">
      <rect width="1366" height="2114"/>
    </clipPath>
  </defs>
  <g id="Take_Action_bg" data-name="Take Action bg" clip-path="url(#clip-Take_Action_bg)">
    <rect width="1366" height="2114" fill="#fff"/>
    <path id="Path_170" data-name="Path 170" d="M0,71,1386,0V543L0,616Z" transform="translate(-10 1187)" fill="none"/>
    <g id="Group_388" data-name="Group 388" transform="translate(-88.873 2371.583) rotate(-101)" style="isolation: isolate">
      <path id="Path_430" data-name="Path 430" d="M76.873,183.917C83.385,205,88.629,230,94.079,256.247c8.353,40.208,17,81.774,31.376,114.308,19.356,43.82,54.757,74.691,92.259,107.4,26.354,22.988,53.611,46.774,75.625,75.906,22.782,30.107,44.325,67.815,67.12,107.749,19.759,34.617,40.2,70.384,61.585,100.938,5.259,7.5,10.849,15.766,16.786,24.551,39,57.674,92.4,136.706,150.6,144.172a134.124,134.124,0,0,0,16.527,1.074c62.295,0,104.8-47.742,145.893-93.891,25.832-28.993,52.554-59,83.683-76.184,29.62-16.352,70.488-24.547,113.772-33.227,51.112-10.244,103.96-20.8,143.547-45.909,27.257-17.291,50.589-43.266,73.125-68.369,39.966-44.549,81.29-90.595,146.5-90.595,15.452,0,31.983,2.607,49.171,7.78,35.557,10.661,74.481,37.641,112.121,63.719,18.646,12.917,37.883,26.251,56.078,37.116,52.744,31.425,109.379,54.795,164.136,77.437,66.566,27.5,135.421,55.937,196.953,98.853,14.93,10.419,30.9,24.585,47.849,39.551,37.881,33.544,77.052,68.234,111.7,68.234h.765c27.154-.417,58.718-25.9,84.064-46.356l4.758-3.822c70.595-56.7,149.591-128.37,199.938-229.936,30.868-62.295,38.786-147.645,46.459-230.184,7.987-86.147,15.663-167.852,47.537-222.646h1.979c-32.083,54.445-39.724,136.428-47.746,222.821-7.673,82.711-15.624,168.233-46.634,230.806-50.522,101.877-129.657,173.725-200.423,230.565l-4.722,3.819c-25.593,20.627-57.434,46.288-85.176,46.741h-.8c-35.347,0-74.759-34.9-112.886-68.686-16.91-14.93-32.847-29.064-47.71-39.41-61.357-42.815-130.11-71.218-196.6-98.684-54.829-22.641-111.494-46.08-164.347-77.571-18.23-10.871-37.533-24.237-56.181-37.154-37.537-26.01-76.322-52.92-111.6-63.476-17.049-5.1-33.405-7.708-48.685-7.708-64.412,0-105.49,45.728-145.179,90-22.6,25.21-46.007,51.25-73.506,68.681-39.83,25.246-92.852,35.869-144.14,46.149-43.123,8.644-83.87,16.8-113.265,33.022-30.852,17.049-57.468,46.945-83.2,75.835-41.375,46.423-84.137,94.447-147.23,94.447a131.3,131.3,0,0,1-16.754-1.074c-58.993-7.569-112.659-86.951-151.845-144.937-5.939-8.751-11.529-17.013-16.773-24.515-21.44-30.625-41.893-66.425-61.665-101.079-22.782-39.862-44.29-77.539-67-107.572-21.893-28.961-49.083-52.678-75.384-75.63-37.641-32.812-73.2-63.856-92.711-108.025-14.446-32.708-23.108-74.378-31.495-114.655C86.841,230.205,81.563,205,75,183.917Z" transform="translate(0 0)" fill="#3510ff" style="mix-blend-mode: color-dodge;isolation: isolate"/>
      <path id="Path_431" data-name="Path 431" d="M91.493,201.46c4.512,17.988,8.317,36.5,11.978,54.588,8.822,43.506,17.936,88.472,37.676,124.792,21.929,40.315,59.378,62.539,95.61,84.068,32.261,19.134,62.712,37.19,83.061,66.947,13.351,19.513,22.535,46.842,31.442,73.3,4.741,14.063,9.619,28.614,15.118,41.983,13.629,33.195,31.254,66.423,57.122,107.815,2.881,4.619,5.885,9.48,8.993,14.513,36.705,59.515,86.964,141.047,154.764,146.95,3.646.312,7.308.486,10.885.486,58.335,0,94.9-41.566,133.615-85.561,26.132-29.686,53.148-60.383,87.368-76.738,29.583-14.13,68.489-20.206,109.672-26.668,49.029-7.637,99.761-15.588,136.879-38.056,34.759-21.007,60.212-52.571,84.794-83.057,33.3-41.32,64.761-80.351,115.7-89.725a198.087,198.087,0,0,1,35.941-3.437c62.364,0,103.474,33.334,146.98,68.613,14.8,11.98,30.071,24.374,46.5,35.7C1554.58,658.561,1625.973,689.5,1695,719.395c58.4,25.313,113.579,49.239,161.567,78.442,14.134,8.576,28.786,18.82,44.273,29.65,44.692,31.219,90.94,63.512,134,63.754h.519c63.059,0,125.8-60.661,163.271-96.913,47.674-46.078,84.862-96.808,110.63-150.84,30.8-64.616,36.215-152.677,41.459-237.853,4.722-76.462,9.235-149,30.8-204.175h1.946c-21.705,55-26.217,127.677-30.943,204.279-5.276,85.35-10.691,173.616-41.666,238.55-25.836,54.2-63.163,105.11-110.976,151.358-37.676,36.427-100.732,97.4-164.521,97.4h-.554c-43.615-.278-90.037-32.71-134.971-64.1-15.484-10.8-30.107-21.01-44.205-29.586-47.881-29.132-102.985-53.022-161.324-78.3-69.132-29.968-140.594-60.9-199.73-101.6-16.491-11.358-31.8-23.788-46.6-35.8-43.266-35.071-84.135-68.194-145.872-68.194a198.113,198.113,0,0,0-35.629,3.4c-50.279,9.269-81.532,48.02-114.619,89.064-24.692,30.627-50.21,62.33-85.247,83.512-37.432,22.639-88.339,30.59-137.542,38.3-41.057,6.426-79.845,12.466-109.171,26.493-33.907,16.183-60.8,46.741-86.808,76.288-37.274,42.366-75.816,86.186-134.952,86.186-3.627,0-7.342-.175-11.04-.487-68.685-6.007-119.225-87.954-156.12-147.818-3.107-5.034-6.108-9.895-8.991-14.513-25.939-41.459-43.6-74.763-57.257-108.061-5.522-13.437-10.436-28.024-15.176-42.122-9.25-27.534-18-53.54-31.2-72.849-20.141-29.408-50.437-47.4-82.5-66.427-36.446-21.632-74.118-43.959-96.274-84.725-19.861-36.562-29.01-81.665-37.864-125.316C98.038,238.2,94.2,219.552,89.65,201.46Z" transform="translate(12.867 -17.543)" fill="#3510ff" style="mix-blend-mode: color-dodge;isolation: isolate"/>
      <path id="Path_432" data-name="Path 432" d="M103.89,214.272C127.12,320.456,158.318,446.4,273.965,446.4c2.361,0,4.741-.036,7.151-.139,19.983-.868,37.99-11.491,55.4-21.771,19.585-11.527,39.846-23.471,62.8-21.391,18.616,1.668,42.573,17.92,61.031,41.429,16.98,21.6,25.295,43.957,22.795,61.32-2.919,20.349-21.162,31.461-40.469,43.163-21.392,12.986-45.61,27.71-52.486,57.744-6.076,26.564,4.343,73.855,17.778,106.845,25.229,61.947,93.252,181.255,170.111,189.553a121.957,121.957,0,0,0,13.214.729c58.871,0,96.806-44.374,133.513-87.259,25.884-30.278,50.347-58.89,81.164-71.634,26.946-11.147,63.249-14.966,101.686-18.995,45.734-4.793,93.01-9.72,126.934-27.708,39.968-21.181,68.994-57.571,97.121-92.783,33.858-42.466,65.835-82.539,114.169-94.445a186.666,186.666,0,0,1,44.378-5.558c69.03,0,121.426,42.5,167.643,80,10,8.092,19.446,15.764,28.961,22.986C1547.9,654.807,1622.1,688,1693.841,720.126c49.271,22.013,100.209,44.827,146.708,71.735,12.149,7.015,24.754,15.212,38.088,23.856,43.4,28.2,92.608,60.14,143.408,62.223,57.886,2.432,107.574-41.6,143.551-73.542l1.735-1.529C2225.7,751.063,2299,660.539,2316.881,523.347c5.383-41.288,6.215-87.537,7.087-132.3,1.211-65.8,2.428-128.269,16.63-176.779h3.715c-14.341,48.2-15.556,110.839-16.805,176.847-.835,44.864-1.7,91.22-7.086,132.715-14.269,109.449-66.388,206.88-150.731,281.71l-1.736,1.565c-36.393,32.323-86.532,76.842-146.05,74.445-51.771-2.12-101.389-34.376-145.209-62.815-13.3-8.612-25.871-16.809-37.922-23.753-46.356-26.842-97.191-49.584-146.359-71.6-71.945-32.19-146.359-65.49-207.68-112.018-9.617-7.293-19.063-14.934-29.064-23.06-48.024-38.959-97.674-79.2-165.421-79.2a181.3,181.3,0,0,0-43.506,5.451c-47.156,11.6-78.792,51.217-112.264,93.2-28.332,35.49-57.64,72.191-98.233,93.718-34.515,18.3-82.154,23.264-128.231,28.093-38.178,3.993-74.222,7.776-100.683,18.749-30.035,12.43-54.22,40.7-79.828,70.63-37.222,43.542-75.715,88.508-136.218,88.508a128.914,128.914,0,0,1-13.593-.729c-78.529-8.475-147.525-129.137-173.03-191.777-13.661-33.508-24.218-81.74-17.968-109.034,7.222-31.493,32.137-46.634,54.115-59.968C460.188,534.181,476.923,524,479.6,505.359c2.325-16.181-5.92-38.058-22.053-58.576-17.881-22.782-40.869-38.508-58.54-40.109-21.861-1.978-40.7,9.134-60.681,20.939-17.8,10.451-36.183,21.32-57.051,22.224-124.743,5.244-157.055-125.8-181.048-235.565Z" transform="translate(22.154 -30.355)" fill="#3510ff" style="mix-blend-mode: color-dodge;isolation: isolate"/>
      <path id="Path_433" data-name="Path 433" d="M905.288,433.08c6.112-1.565,11.876-3.022,17.224-4.48,143.13-39.622,234.521-87.225,300.6-157.369h2.432c-66.391,71.044-158.271,119.173-302.582,159.1-5.347,1.459-11.112,2.953-17.224,4.481-38.888,9.93-87.326,22.258-89.344,52.257-1.736,25.871,59.485,96.671,92.679,128.825,57.918,56.113,137.886,95.315,208.445,129.9,24.757,12.117,48.125,23.578,70.142,35.417,46.145,24.863,98.44,53.024,153.509,68.3a167.021,167.021,0,0,0,44.483,6.11c55.557,0,98.51-28.506,119.171-45.52,134.587-110.771,134.17-317.305,118.65-538.876h1.771c7.5,107.227,11.7,218.48-3.578,313.587-16.32,101.881-54.2,176.015-115.733,226.675-20.832,17.156-64.169,45.939-120.281,45.939a168.748,168.748,0,0,1-44.934-6.18c-55.278-15.345-107.677-43.542-153.894-68.44-21.976-11.839-45.349-23.3-70.106-35.417-70.662-34.618-150.769-73.855-208.9-130.213-30-29.064-95.108-102.227-93.2-130.213C816.709,455.647,865.845,443.149,905.288,433.08Z" transform="translate(649.553 -87.314)" fill="#3510ff" style="mix-blend-mode: color-dodge;isolation: isolate"/>
      <path id="Path_434" data-name="Path 434" d="M955.62,470.4c88.825-47.36,180.252-102.257,251.4-182.609h2.329c-71.427,81.22-163.479,136.532-252.89,184.209-46.878,25-70.073,47.5-75.178,72.952-4.444,22.188,5.034,47.295,28.993,76.774,38.2,47.017,107.229,86.5,173.965,124.691l8.092,4.619c70.072,40.1,157.262,90.072,237.787,90.072,45.067,0,82.676-15.31,115-46.771,51.081-49.723,83.478-124.381,96.323-221.85,10.28-78.4,8.509-171.708-5.451-284.7h1.807c13.959,113.061,15.73,206.433,5.415,284.943-12.883,97.884-45.452,172.887-96.842,222.887-32.678,31.81-70.734,47.259-116.254,47.259-81.013,0-168.443-50.071-238.688-90.279l-8.058-4.619c-66.911-38.266-136.079-77.852-174.484-125.11-24.307-29.932-33.925-55.522-29.378-78.264C884.751,518.567,908.222,495.686,955.62,470.4Z" transform="translate(705.614 -103.878)" fill="#3510ff" style="mix-blend-mode: color-dodge;isolation: isolate"/>
      <path id="Path_435" data-name="Path 435" d="M1040.271,451c8.09-7.154,15.731-13.925,22.988-20.591,46.632-42.988,87.954-83.3,131.982-128.791h2.464c-44.478,46.008-86.147,86.707-133.231,130.11-7.291,6.7-14.934,13.473-23.022,20.627-65.1,57.468-146.082,129.031-69.862,219.172,43.3,51.149,162.746,129.834,246.188,150.8a206.892,206.892,0,0,0,50.244,6.6c25.971,0,49.723-5.834,70.628-17.327,135.8-74.515,151.325-307.234,106.494-509.984h1.771c22.432,101.566,28.372,204,16.567,290.08-14.9,108.581-57.779,185.145-123.966,221.5-21.181,11.632-45.242,17.537-71.494,17.537a209.279,209.279,0,0,1-50.7-6.666c-83.718-21.044-203.651-100.04-247.09-151.4C892.87,581.218,974.577,508.991,1040.271,451Z" transform="translate(758.642 -117.705)" fill="#3510ff" style="mix-blend-mode: color-dodge;isolation: isolate"/>
      <path id="Path_436" data-name="Path 436" d="M1135.993,380.059c25.1-21.771,49.03-42.569,70.1-63.961h2.536c-21.459,21.91-45.869,43.127-71.494,65.351-62.329,53.993-126.774,109.864-154.73,183.131-12.291,32.222-12.291,72.434,0,100.04,14.793,33.3,51.391,70.974,97.886,100.8,51.08,32.78,105.247,50.8,152.542,50.8,39.41,0,72.5-12.359,98.438-36.773C1432.495,684.169,1438.227,472.6,1386,316.1h1.91c52.189,156.984,46.181,369-55.418,464.671-26.252,24.724-59.793,37.257-99.655,37.257-102.02,0-221.328-83.51-252.058-152.677-12.468-28.024-12.468-68.79-.036-101.43C1008.872,490.238,1073.488,434.23,1135.993,380.059Z" transform="translate(787.301 -132.181)" fill="#3510ff" style="mix-blend-mode: color-dodge;isolation: isolate"/>
      <path id="Path_437" data-name="Path 437" d="M1266.171,335.242c-48.3,0-107.711,49.275-138.861,78.617-43.995,41.495-84.792,92.884-101.531,127.852-26.807,55.937-26.807,113.819-.1,163.024,27.986,51.529,81.707,85.662,147.333,93.684,54.376,6.632,102.4-18.056,137.5-70.488,27.014-40.385,45-96.287,49.376-153.374,8.4-109.935-17.361-227.126-82.956-238.413A63.723,63.723,0,0,0,1266.171,335.242Zm-75.8,462.449a143.148,143.148,0,0,1-17.12-1.043c-65.073-7.986-118.3-41.771-146.011-92.781-26.426-48.645-26.39-105.978.139-161.392,16.664-34.8,57.326-85.942,101.148-127.3,30.937-29.168,89.969-78.129,137.643-78.129a59.8,59.8,0,0,1,10.451.868c64.552,11.112,89.83,127.367,81.5,236.5-4.339,56.8-22.256,112.4-49.1,152.506C1278.048,773.209,1237,797.691,1190.372,797.691Z" transform="translate(817.371 -149.589)" fill="#3510ff" style="mix-blend-mode: color-dodge;isolation: isolate"/>
      <path id="Path_438" data-name="Path 438" d="M294.449,346.546c29.1,69.03,60.283,126.533,111.62,179.176,26.373,27.047,58.908,47.742,90.35,67.742,30.454,19.378,61.928,39.38,88.356,65.351,13.557,13.334,25.693,28.439,37.447,43.059,36.183,45.035,70.368,87.6,145.143,87.6a222.488,222.488,0,0,0,24.012-1.386c72.276-8.022,102.383-64.066,131.483-118.233,5.8-10.766,11.769-21.878,17.984-32.432,4.726-8.093,13.681-18.995,24.029-31.6,22.607-27.6,50.732-61.945,47.33-82.918-3.614-22.468-44.934-32.154-78.13-39.934-3.644-.868-7.186-1.7-10.556-2.5C833.2,458.463,770.6,427.766,741.618,346.546h1.893C772.334,426.585,834.418,456.9,923.936,478.7c3.368.832,6.908,1.668,10.554,2.5,33.719,7.917,75.664,17.742,79.483,41.391,3.507,21.807-24.9,56.493-47.745,84.376-10.28,12.569-19.168,23.4-23.854,31.358-6.179,10.554-12.154,21.632-17.917,32.4-29.342,54.582-59.69,111.011-132.888,119.137a218.721,218.721,0,0,1-24.2,1.422c-75.625,0-111.669-44.9-146.533-88.267C609.118,688.432,597,673.363,583.522,660.1c-26.283-25.836-57.691-45.8-88.055-65.108-31.532-20.067-64.152-40.8-90.662-68.023-51.705-52.986-83.025-110.9-112.3-180.423Z" transform="translate(191.031 -162.629)" fill="#3510ff" style="mix-blend-mode: color-dodge;isolation: isolate"/>
      <path id="Path_439" data-name="Path 439" d="M313.33,369.229c26.72,65.94,60.989,131.984,122.521,179.1,23.783,18.195,50.888,30.7,79.586,43.959,24.391,11.249,49.62,22.883,74.047,38.753,23.94,15.52,42.573,39.34,60.593,62.4,23.456,30,45.608,58.369,78.647,70.589a86.177,86.177,0,0,0,30.263,5.522c33.213,0,66.928-19.061,94.915-53.611,32.642-40.387,49.378-92.922,41.635-130.735-6.217-30.278-40.732-45.73-74.133-60.7-17.849-7.986-34.69-15.52-47.069-25.139-45.574-35.315-61.095-77.122-80.768-130.042a.263.263,0,0,0-.032-.1h1.908c19.461,52.4,34.949,93.825,79.986,128.72,12.22,9.48,28.957,16.982,46.7,24.932,33.818,15.141,68.752,30.8,75.174,61.947,7.847,38.334-9.027,91.494-42.013,132.26-28.371,35-62.539,54.274-96.306,54.274a88.906,88.906,0,0,1-30.888-5.625c-33.5-12.43-56.859-42.295-79.426-71.185-17.921-22.917-36.461-46.632-60.144-62.015-24.339-15.766-49.5-27.4-73.839-38.613-28.786-13.3-55.991-25.832-79.917-44.169-62.086-47.535-96.511-114.1-123.372-180.526Z" transform="translate(207.624 -185.312)" fill="#3510ff" style="mix-blend-mode: color-dodge;isolation: isolate"/>
      <path id="Path_440" data-name="Path 440" d="M330.374,408.533c34.549,86.357,80.557,141.186,143.962,171.811,27.883,13.441,58.285,20.417,87.676,27.19,35.49,8.125,69.017,15.834,94.744,34.028,11.649,8.231,21.773,23.336,32.485,39.308,18.473,27.571,37.588,56.076,67.032,54.064,23.075-1.565,43.525-30.836,42.068-60.212-1.6-31.7-27.083-48.024-51.771-63.786-13.629-8.715-27.727-17.742-37.379-29.2-32.4-38.473-40.539-79.864-49.151-123.72-3.18-16.217-6.478-32.847-11.095-49.481h1.875c4.547,16.527,7.812,33.058,10.973,49.134,8.559,43.614,16.666,84.795,48.752,122.888,9.5,11.285,23.471,20.206,36.979,28.854,25.052,16.044,50.955,32.6,52.588,65.247,1.529,30.244-19.724,60.454-43.717,62.084-1.024.068-2.031.1-3.037.1-28.751,0-47.487-27.951-65.591-54.966-10.629-15.834-20.663-30.8-32.034-38.858-25.451-17.984-58.8-25.625-94.118-33.751-29.479-6.769-59.984-13.749-88.042-27.325C409.558,551.039,363.2,495.722,328.447,408.533Z" transform="translate(222.595 -224.616)" fill="#3510ff" style="mix-blend-mode: color-dodge;isolation: isolate"/>
      <path id="Path_441" data-name="Path 441" d="M343.2,496.549c26.078,71.391,99.83,161.188,199.418,161.188,3.107,0,6.251-.1,9.357-.278,23.283-1.318,40.037-8.89,51.217-23.264,24.395-31.286,16.339-90,7.763-137.645h1.824C621.39,544.469,629.41,603.5,604.6,635.3c-11.358,14.587-29.029,22.643-52.522,23.963-3.142.173-6.319.276-9.461.276-100.732,0-175.231-91.01-201.326-162.993Z" transform="translate(233.879 -312.632)" fill="#3510ff" style="mix-blend-mode: color-dodge;isolation: isolate"/>
      <path id="Path_442" data-name="Path 442" d="M545.365,504.924c34.8,81.046,118.757,95.283,240.285,106.949,33.649,3.264,64.59,11.352,94.486,19.2,27.811,7.29,54.064,14.2,80.66,16.769,17.188,1.7,35,2.536,52.851,2.536,166.253,0,330.949-72.4,413.139-145.457h2.71c-81.984,73.752-248.134,147.262-415.849,147.262-17.917,0-35.766-.866-53.025-2.534-26.735-2.6-53.054-9.515-80.938-16.8-29.829-7.848-60.7-15.939-94.2-19.168-122.54-11.8-207.126-26.181-242.06-108.756Z" transform="translate(411.4 -321.007)" fill="#3510ff" style="mix-blend-mode: color-dodge;isolation: isolate"/>
      <path id="Path_443" data-name="Path 443" d="M361.046,530.029c14.376,55.593,79.1,98.3,130.2,98.3,21.042,0,38.142-7.257,49.481-20.971,13.888-16.841,18.9-43.4,14.756-77.33h1.824c4.288,34.654-.8,61.01-15.212,78.474-11.683,14.134-29.269,21.634-50.849,21.634-51.9,0-117.662-43.544-132.037-100.108Z" transform="translate(249.612 -346.112)" fill="#3510ff" style="mix-blend-mode: color-dodge;isolation: isolate"/>
      <path id="Path_444" data-name="Path 444" d="M563.382,528.475c34.828,60.907,114.206,64.864,205.109,69.411,9.865.487,19.9.975,30.039,1.565,35.137,2.012,70.694,8.956,105.106,15.659,30.141,5.87,58.647,11.388,84.344,13.127,14.412.971,28.957,1.458,43.3,1.458,122.92,0,244.278-37.5,330.08-101.22h3.02c-86.254,64.829-208.9,103.027-333.1,103.027-14.376,0-29-.487-43.441-1.461-25.8-1.735-54.34-7.29-84.554-13.191-34.34-6.668-69.862-13.58-104.864-15.592-10.137-.592-20.139-1.078-30.035-1.565-91.913-4.585-172.087-8.612-207.089-71.218Z" transform="translate(427.101 -344.558)" fill="#3510ff" style="mix-blend-mode: color-dodge;isolation: isolate"/>
      <path id="Path_445" data-name="Path 445" d="M584.967,544.577c35.387,37.225,94.484,38.647,161.775,40.28,17.641.417,35.871.868,54.588,1.91,33.23,1.908,68.613,8.231,102.815,14.307,39.93,7.119,81.256,14.479,118.061,14.479h.693c122.677-.314,215.668-43.927,261.609-70.976h3.5c-45.107,26.982-139.655,72.469-265.114,72.783h-.693c-36.979,0-78.335-7.365-118.372-14.515-34.167-6.076-69.483-12.363-102.606-14.273-18.681-1.076-36.912-1.493-54.517-1.944C678.236,585,618.2,583.538,582.5,544.577Z" transform="translate(445.724 -360.66)" fill="#3510ff" style="mix-blend-mode: color-dodge;isolation: isolate"/>
      <path id="Path_446" data-name="Path 446" d="M606.893,559c25.87,14.619,60,18.719,94,20.627,38.022,2.115,77.92,6.04,120.143,10.208,65.073,6.425,132.333,13.056,195.665,13.056,91.325,0,157.609-14.031,205.669-43.891h3.332c-48.542,31.078-115.767,45.7-209,45.7-63.439,0-130.731-6.634-195.84-13.056-42.224-4.168-82.086-8.125-120.074-10.208-35.383-1.982-71.044-6.358-97.5-22.434Z" transform="translate(463.975 -375.08)" fill="#3510ff" style="mix-blend-mode: color-dodge;isolation: isolate"/>
      <path id="Path_447" data-name="Path 447" d="M720.5,572.216c3.436.488,6.873.939,10.276,1.424,62.33,8.683,126.742,17.639,186.882,17.639,49.656,0,91.947-6.283,128.267-19.063h5.246c-37.537,14-81.532,20.87-133.513,20.87-60.279,0-124.762-8.993-187.124-17.641q-11.563-1.615-23.229-3.229Z" transform="translate(555.338 -388.299)" fill="#3510ff" style="mix-blend-mode: color-dodge;isolation: isolate"/>
      <path id="Path_448" data-name="Path 448" d="M485.925,285.5c14.183,21.318,13.942,48.264-.7,75.871-18.37,34.618-55.088,60.73-85.4,60.73a53.766,53.766,0,0,1-8.612-.693c-23.108-3.961-45.246-18.475-59.22-38.788-9.532-13.818-19.654-36.8-13.736-67.676,6.5-33.854,58.773-56.6,103.513-56.6h0C451.494,258.345,474.291,268,485.925,285.5Zm-64.152-23.542c-42.434,0-93.927,22.049-100,53.683-5.678,29.618,4.029,51.667,13.159,64.93,13.437,19.549,34.707,33.475,56.878,37.3a50.692,50.692,0,0,0,8.02.657c29.1,0,64.447-25.313,82.244-58.857,8.107-15.278,18.995-44.93.885-72.156C472,271.021,450.264,261.959,421.773,261.959Z" transform="translate(212.101 372.219)" fill="#3510ff" style="mix-blend-mode: color-dodge;isolation: isolate"/>
      <path id="Path_449" data-name="Path 449" d="M385.114,435.752c-42.362-50.661-78.057-107.332-111.721-177.369h3.956c33.317,69.03,68.651,125,110.489,175.044,26.949,32.257,59.274,58.854,90.525,84.55,25.419,20.9,49.414,40.659,70.264,62.883,13.075,13.959,22.241,30.454,31.076,46.391,9.863,17.778,19.17,34.549,33.146,47.051,38.508,34.342,104.744,44.134,124.118,46.32a285.56,285.56,0,0,0,31.581,1.843c105.786,0,150.788-67.12,194.33-131.986,26.979-40.208,52.467-78.2,91.15-99.9,26.769-15,53.889-22.639,80.629-22.639,73.506,0,132.85,55.867,180.489,100.732,3.09,2.881,6.078,5.729,9.065,8.507,57.154,53.437,103.579,88.788,146.152,111.254,25.728,13.578,53.439,25.9,82.745,38.995,30.7,13.646,62.4,27.78,92.4,43.752,15.175,8.054,30.766,17.5,47.257,27.5,51.359,31.147,109.554,66.463,170.008,66.463a151.379,151.379,0,0,0,35.28-4.168c124.83-30.244,226.85-190.84,227.4-358.036.068-27.083-1.843-56.425-3.89-87.5-3.471-52.329-6.98-106.254-1.493-157.055h3.576c-5.522,50.595-1.98,104.52,1.458,156.813,2.085,31.145,3.993,60.521,3.927,87.779-.246,78.649-24.1,162.16-65.386,229.072-43.266,70.138-101.774,117.155-164.763,132.4a152.9,152.9,0,0,1-36.112,4.269c-61.423,0-120.074-35.556-171.845-66.945-16.459-9.964-32.017-19.41-47.084-27.4-29.9-15.9-61.566-30.035-92.157-43.647-29.376-13.092-57.154-25.486-82.99-39.1-42.849-22.639-89.552-58.162-146.913-111.811-2.987-2.776-6.01-5.625-9.063-8.5-47.227-44.445-105.978-99.762-178.062-99.762-26.114,0-52.678,7.468-78.895,22.188-37.917,21.288-63.194,58.893-89.9,98.72-44.066,65.7-89.655,133.614-197.316,133.614a293.317,293.317,0,0,1-31.979-1.873c-19.637-2.222-86.793-12.154-126.081-47.223-14.446-12.881-23.89-29.932-33.891-47.956-8.751-15.763-17.8-32.083-30.573-45.693-20.7-22.049-44.6-41.741-69.915-62.539C444.716,494.953,412.27,468.251,385.114,435.752Z" transform="translate(174.243 -74.466)" fill="#3510ff" style="mix-blend-mode: color-dodge;isolation: isolate"/>
      <path id="Path_450" data-name="Path 450" d="M124.19,231.889c3.157,9.583,6.095,20.141,9.113,31.114,14.778,53.683,31.529,114.518,89.868,114.518h.952c33-.381,50.5-20.905,67.415-40.73,16.563-19.448,33.683-39.483,64.934-38.4,39.185,1.426,84.346,62.084,114.223,102.225,6.1,8.161,11.354,15.244,15.781,20.766,8.768,10.9,17.12,20.486,25.191,29.757,10.8,12.395,21.01,24.1,32.034,38.613,1.287,1.7,2.692,3.542,4.185,5.451,15.779,20.417,39.62,51.288,35.471,78.649-4.551,30.071-36.478,41.459-70.281,53.51-35.576,12.706-72.349,25.8-79.864,61.737-10.732,51.286,29.408,109.1,42.6,128.092,12.171,17.537,49.222,70.873,98.635,71.184H575c48.144,0,79.569-41.632,109.971-81.876,25.712-34.066,52.293-69.312,89.15-79.935,31.788-9.166,60.351-10.347,81.671-10.347,11.215,0,22.241.381,32.915.729,10.539.349,20.488.693,30.509.693,24.705,0,53.938-1.908,83.388-16.146,46.32-22.4,77.052-64.479,106.772-105.142,41.183-56.322,80.074-109.554,155.8-109.554a196.522,196.522,0,0,1,46.01,5.905c46.078,11.112,94.238,51.737,136.776,87.574,8.644,7.288,16.8,14.2,24.791,20.693,71.425,58.232,139.24,88.579,217.786,123.684,41.739,18.683,84.9,37.99,132.228,63.2,12.081,6.461,24.79,14.273,38.195,22.535,44.481,27.329,95.037,58.476,150.352,56.425,59.761-2.186,118.926-44.339,180.911-128.787,54.93-74.864,84.065-147.506,89.03-222.126,2.847-42.849,1.422-85.14.069-126.009-1.912-57.086-3.683-111.289,6.875-157.995h3.648c-10.627,46.427-8.858,100.7-6.948,157.887,1.354,40.941,2.78,83.3-.1,126.359-5,75.315-34.34,148.584-89.689,224-62.674,85.422-122.749,128.025-183.689,130.247-56.39,2.049-107.432-29.34-152.3-56.944-13.4-8.23-26.04-16.006-38.056-22.4-47.187-25.174-90.279-44.447-131.984-63.093-78.75-35.244-146.774-65.662-218.583-124.171-8.018-6.529-16.179-13.437-24.827-20.731-42.224-35.591-90.073-75.974-135.318-86.844a193.073,193.073,0,0,0-45.174-5.8c-73.927,0-112.3,52.5-152.919,108.061-29.968,41.044-61.012,83.474-108.1,106.256-30.107,14.545-59.828,16.527-84.949,16.527-10.071,0-20.054-.349-30.629-.693-10.642-.385-21.632-.765-32.795-.765-21.095,0-49.323,1.18-80.7,10.244-35.695,10.274-61.911,45.035-87.278,78.611C656.9,849.618,624.92,891.984,575,891.984h-.571c-51.271-.349-89.1-54.829-101.534-72.714-13.42-19.34-54.239-78.095-43.178-130.942,7.915-37.883,45.659-51.356,82.156-64.344,32.761-11.7,63.717-22.742,67.952-50.661,3.907-25.832-19.374-55.974-34.774-75.9-1.493-1.944-2.9-3.787-4.2-5.486-10.937-14.41-21.11-26.076-31.872-38.439-8.11-9.307-16.478-18.888-25.282-29.861-4.48-5.59-9.756-12.676-15.87-20.87-29.479-39.584-74.011-99.413-111.494-100.8-29.481-1.078-45.315,17.466-62.086,37.154-17.43,20.451-35.454,41.6-70.09,42.017h-.988c-61.063,0-78.944-64.969-93.32-117.159-3.125-11.39-6.148-22.291-9.429-32.085Z" transform="translate(39.893 -47.972)" fill="#3510ff" style="mix-blend-mode: color-dodge;isolation: isolate"/>
    </g>
  </g>
</svg>
