<svg xmlns="http://www.w3.org/2000/svg" width="35.968" height="40.683" viewBox="0 0 35.968 40.683">
  <g id="Group_355" data-name="Group 355" transform="translate(-323.656 -234.999)">
    <g id="Group_346" data-name="Group 346" transform="translate(326.513 242.571)">
      <path id="Path_411" data-name="Path 411" d="M446.234,550.018a15.081,15.081,0,1,1,5.888-1.189A15.032,15.032,0,0,1,446.234,550.018Zm0-29.137a14.01,14.01,0,1,0,14.01,14.01A14.026,14.026,0,0,0,446.234,520.881Z" transform="translate(-431.107 -519.764)" fill="#3510ff"/>
    </g>
    <g id="Group_347" data-name="Group 347" transform="translate(338.796 254.854)">
      <path id="Path_412" data-name="Path 412" d="M895.883,987.383a2.844,2.844,0,1,1,2.844-2.844A2.847,2.847,0,0,1,895.883,987.383Zm0-4.571a1.727,1.727,0,1,0,1.727,1.727A1.729,1.729,0,0,0,895.883,982.812Z" transform="translate(-893.039 -981.695)" fill="#3510ff"/>
    </g>
    <g id="Group_348" data-name="Group 348" transform="translate(323.656 239.714)">
      <path id="Path_413" data-name="Path 413" d="M341.64,448.281a17.929,17.929,0,1,1,7-1.414A17.872,17.872,0,0,1,341.64,448.281Zm0-34.851A16.867,16.867,0,1,0,358.507,430.3,16.886,16.886,0,0,0,341.64,413.43Z" transform="translate(-323.656 -412.313)" fill="#3510ff"/>
    </g>
    <g id="Group_352" data-name="Group 352" transform="translate(334.586 250.644)">
      <g id="Group_351" data-name="Group 351">
        <g id="Group_349" data-name="Group 349" transform="translate(6.486)">
          <path id="Path_414" data-name="Path 414" d="M981.493,831.007a.559.559,0,0,1-.468-.862l2.793-4.316-4.317,2.793a.558.558,0,0,1-.607-.938l6.5-4.209a.558.558,0,0,1,.772.772l-4.21,6.5A.558.558,0,0,1,981.493,831.007Z" transform="translate(-978.64 -823.385)" fill="#3510ff"/>
        </g>
        <g id="Group_350" data-name="Group 350" transform="translate(0 6.486)">
          <path id="Path_415" data-name="Path 415" d="M735.287,1074.919a.558.558,0,0,1-.469-.862l4.209-6.5a.558.558,0,0,1,.938.607l-2.793,4.317,4.316-2.793a.558.558,0,0,1,.607.938l-6.5,4.21A.557.557,0,0,1,735.287,1074.919Z" transform="translate(-734.728 -1067.297)" fill="#3510ff"/>
        </g>
      </g>
    </g>
    <g id="Group_353" data-name="Group 353" transform="translate(338.724 234.999)">
      <path id="Path_416" data-name="Path 416" d="M893.26,240.831a2.916,2.916,0,1,1,2.916-2.916A2.919,2.919,0,0,1,893.26,240.831Zm0-4.715a1.8,1.8,0,1,0,1.8,1.8A1.8,1.8,0,0,0,893.26,236.116Z" transform="translate(-890.344 -234.999)" fill="#3510ff"/>
    </g>
  </g>
</svg>
