<svg xmlns="http://www.w3.org/2000/svg" xmlns:xlink="http://www.w3.org/1999/xlink" width="56" height="34" viewBox="0 0 56 34">
  <defs>
    <clipPath id="clip-headlamp">
      <rect width="56" height="34"/>
    </clipPath>
  </defs>
  <g id="headlamp" clip-path="url(#clip-headlamp)">
    <rect width="56" height="34" fill="#fff"/>
    <g id="Group_369" data-name="Group 369" transform="translate(-712.68 -1370.543)">
      <g id="Group_366" data-name="Group 366" transform="translate(711.681 1357.505)">
        <path id="Path_428" data-name="Path 428" d="M31.432,27a5.432,5.432,0,1,0,5.432,5.432A5.437,5.437,0,0,0,31.432,27Zm.905,8.925V33.337H30.527v2.587a3.617,3.617,0,0,1-2.587-2.587h2.587V31.527H27.939a3.617,3.617,0,0,1,2.587-2.587v2.587h1.811V28.939a3.617,3.617,0,0,1,2.587,2.587H32.337v1.811h2.587A3.617,3.617,0,0,1,32.337,35.925Z" transform="translate(-2.272 -1.231)" fill="#3510ff"/>
        <path id="Path_429" data-name="Path 429" d="M29.16,14C16.079,14,2,16.266,2,21.243v7.243c0,4.088,9.561,5.855,14.485,6.493v.75a3.625,3.625,0,0,0,3.621,3.621H38.213a3.625,3.625,0,0,0,3.621-3.621v-.751c4.925-.638,14.485-2.4,14.485-6.492V21.243C56.319,16.266,42.241,14,29.16,14ZM3.811,28.485V24.066c3.013,2.135,9.079,3.2,12.674,3.669v5.412C7.223,31.929,3.811,29.718,3.811,28.485Zm36.213,7.243a1.812,1.812,0,0,1-1.811,1.811H20.106A1.812,1.812,0,0,1,18.3,35.728V26.674a1.812,1.812,0,0,1,1.811-1.811H38.213a1.812,1.812,0,0,1,1.811,1.811ZM38.213,23.053H20.106a3.625,3.625,0,0,0-3.538,2.863,49.17,49.17,0,0,1-7.521-1.5c4.9-1.42,12.275-2.272,20.112-2.272S44.375,23,49.271,24.42a49.155,49.155,0,0,1-7.52,1.5A3.627,3.627,0,0,0,38.213,23.053Zm3.621,10.094V27.736c3.6-.466,9.662-1.535,12.674-3.669v4.419C54.509,29.718,51.1,31.93,41.834,33.148Zm10.16-9.723C47.08,21.518,38.4,20.337,29.16,20.337s-17.921,1.18-22.836,3.087c-1.754-.807-2.513-1.6-2.513-2.182,0-2.22,9.027-5.432,25.349-5.432s25.349,3.212,25.349,5.432C54.509,21.822,53.749,22.618,51.995,23.424Z" transform="translate(0 0)" fill="#3510ff"/>
        <circle id="Ellipse_6" data-name="Ellipse 6" cx="0.905" cy="0.905" r="0.905" transform="translate(36.402 30.296)" fill="#3510ff"/>
        <circle id="Ellipse_7" data-name="Ellipse 7" cx="0.905" cy="0.905" r="0.905" transform="translate(20.106 30.296)" fill="#3510ff"/>
        <rect id="Rectangle_450" data-name="Rectangle 450" width="1.811" height="4.527" transform="translate(28.254 42.065)" fill="#3510ff"/>
        <rect id="Rectangle_451" data-name="Rectangle 451" width="1.811" height="4.527" transform="translate(32.059 41.703) rotate(-36.883)" fill="#3510ff"/>
        <rect id="Rectangle_452" data-name="Rectangle 452" width="4.527" height="1.811" transform="matrix(0.6, -0.8, 0.8, 0.6, 22.098, 44.238)" fill="#3510ff"/>
      </g>
    </g>
  </g>
</svg>
