<svg xmlns="http://www.w3.org/2000/svg" width="20.364" height="20.364" viewBox="0 0 20.364 20.364">
  <path id="Path_45" data-name="Path 45" d="M10.182,1.81a31.22,31.22,0,0,1,4.073.113,5.247,5.247,0,0,1,1.923.339A3.973,3.973,0,0,1,18.1,4.186a5.247,5.247,0,0,1,.339,1.923c0,1.018.113,1.358.113,4.073a31.219,31.219,0,0,1-.113,4.073,5.247,5.247,0,0,1-.339,1.923A3.973,3.973,0,0,1,16.178,18.1a5.247,5.247,0,0,1-1.923.339c-1.018,0-1.358.113-4.073.113a31.219,31.219,0,0,1-4.073-.113A5.247,5.247,0,0,1,4.186,18.1a3.973,3.973,0,0,1-1.923-1.923,5.247,5.247,0,0,1-.339-1.923c0-1.018-.113-1.358-.113-4.073a31.22,31.22,0,0,1,.113-4.073,5.247,5.247,0,0,1,.339-1.923,4.063,4.063,0,0,1,.792-1.131,1.913,1.913,0,0,1,1.131-.792,5.247,5.247,0,0,1,1.923-.339,31.22,31.22,0,0,1,4.073-.113m0-1.81A33.427,33.427,0,0,0,6,.113,6.984,6.984,0,0,0,3.507.566,4.429,4.429,0,0,0,1.7,1.7,4.429,4.429,0,0,0,.566,3.507,5.155,5.155,0,0,0,.113,6,33.427,33.427,0,0,0,0,10.182a33.427,33.427,0,0,0,.113,4.186,6.984,6.984,0,0,0,.453,2.489A4.429,4.429,0,0,0,1.7,18.667,4.429,4.429,0,0,0,3.507,19.8,6.984,6.984,0,0,0,6,20.251a33.427,33.427,0,0,0,4.186.113,33.427,33.427,0,0,0,4.186-.113,6.984,6.984,0,0,0,2.489-.453A4.746,4.746,0,0,0,19.8,16.857a6.984,6.984,0,0,0,.453-2.489c0-1.131.113-1.471.113-4.186A33.427,33.427,0,0,0,20.251,6,6.984,6.984,0,0,0,19.8,3.507,4.429,4.429,0,0,0,18.667,1.7,4.429,4.429,0,0,0,16.857.566,6.984,6.984,0,0,0,14.368.113,33.427,33.427,0,0,0,10.182,0m0,4.978a5.12,5.12,0,0,0-5.2,5.2,5.2,5.2,0,1,0,5.2-5.2m0,8.6a3.333,3.333,0,0,1-3.394-3.394,3.333,3.333,0,0,1,3.394-3.394,3.333,3.333,0,0,1,3.394,3.394,3.333,3.333,0,0,1-3.394,3.394m5.43-10.069a1.244,1.244,0,1,0,1.244,1.244,1.255,1.255,0,0,0-1.244-1.244" fill="#fff" fill-rule="evenodd"/>
</svg>
