<svg xmlns="http://www.w3.org/2000/svg" xmlns:xlink="http://www.w3.org/1999/xlink" width="301" height="244" viewBox="0 0 301 244">
  <defs>
    <clipPath id="clip-Artboard_17">
      <rect width="301" height="244"/>
    </clipPath>
  </defs>
  <g id="Artboard_17" data-name="Artboard – 17" clip-path="url(#clip-Artboard_17)">
    <rect width="301" height="244" fill="#fff"/>
    <g id="Group_824" data-name="Group 824" transform="translate(-636.121 -9.629)">
      <path id="Path_1381" data-name="Path 1381" d="M663.718,247.026l-3.787-15.947h-6.254l-3.614,16.043-3.231-16.043h-7.644l6.567,21.263h7.853l2.224-9.085.938-5.316h.1l.938,5.316,2.224,9.085h7.645l6.567-21.263H666.88Z" fill="#3510ff"/>
      <path id="Path_1382" data-name="Path 1382" d="M685.306,231.079l-7.713,21.263h7.088l1.32-4.414h6.985l1.285,4.414h7.3l-7.748-21.263Zm1.877,12.6,2.328-7.925,2.328,7.925Z" fill="#3510ff"/>
      <path id="Path_1383" data-name="Path 1383" d="M717.381,236.395l-1.668,3.705-1.7-3.705-2.78-5.315h-7.193L712.1,244.8v7.539h7.123V244.8l8.026-13.724H720.2Z" fill="#3510ff"/>
      <path id="Path_1384" data-name="Path 1384" d="M734.283,252.342h7.088v-7.7h9.1v-4.929h-9.1v-3.705h11.362v-4.929h-18.45Z" fill="#3510ff"/>
      <path id="Path_1385" data-name="Path 1385" d="M776.739,232.062a15.064,15.064,0,0,0-12.266,0,9.237,9.237,0,0,0-3.978,3.753,13.2,13.2,0,0,0,0,11.791,9.243,9.243,0,0,0,3.978,3.753,15.064,15.064,0,0,0,12.266,0,9.182,9.182,0,0,0,3.926-3.753,13.343,13.343,0,0,0,0-11.791A9.176,9.176,0,0,0,776.739,232.062Zm-2.415,12.951a3.851,3.851,0,0,1-1.39,1.965,4.466,4.466,0,0,1-4.673,0,4,4,0,0,1-1.39-1.965,11.918,11.918,0,0,1,0-6.621,3.993,3.993,0,0,1,1.39-1.949,4.466,4.466,0,0,1,4.673,0,3.848,3.848,0,0,1,1.39,1.949,12.348,12.348,0,0,1,0,6.621Z" fill="#3510ff"/>
      <path id="Path_1386" data-name="Path 1386" d="M807.636,242.87a6.028,6.028,0,0,0,2.294-5.122,5.833,5.833,0,0,0-2.346-4.849,10.585,10.585,0,0,0-6.619-1.82H789.221v21.263h6.949v-7.378h2.9l4.432,7.378h7.749l-5.773-8.364A7.5,7.5,0,0,0,807.636,242.87Zm-11.466-6.991h3.648a3.787,3.787,0,0,1,2.242.548,2.054,2.054,0,0,1,.747,1.772,2.009,2.009,0,0,1-.747,1.756,3.878,3.878,0,0,1-2.242.531H796.17Z" fill="#3510ff"/>
      <path id="Path_1387" data-name="Path 1387" d="M839.1,247.026l-3.787-15.947h-6.254l-3.614,16.043-3.231-16.043H814.57l6.567,21.263h7.853l2.224-9.085.938-5.316h.1l.938,5.316,2.224,9.085h7.645l6.567-21.263h-7.366Z" fill="#3510ff"/>
      <path id="Path_1388" data-name="Path 1388" d="M860.089,231.079l-7.714,21.263h7.088l1.321-4.414h6.984l1.286,4.414h7.3L868.6,231.079Zm1.876,12.6,2.328-7.925,2.328,7.925Z" fill="#3510ff"/>
      <path id="Path_1389" data-name="Path 1389" d="M901.427,242.87a6.028,6.028,0,0,0,2.294-5.122,5.83,5.83,0,0,0-2.346-4.849,10.583,10.583,0,0,0-6.619-1.82H883.012v21.263h6.949v-7.378h2.9l4.433,7.378h7.748l-5.773-8.364A7.487,7.487,0,0,0,901.427,242.87Zm-11.466-6.991h3.649a3.785,3.785,0,0,1,2.241.548,2.054,2.054,0,0,1,.747,1.772,2.009,2.009,0,0,1-.747,1.756,3.877,3.877,0,0,1-2.241.531h-3.649Z" fill="#3510ff"/>
      <path id="Path_1390" data-name="Path 1390" d="M931.647,233.85q-2.814-2.772-8.2-2.771H912.919v21.263h10.528q5.385,0,8.2-2.787t2.815-7.844Q934.462,236.62,931.647,233.85Zm-5.49,12.258a4.076,4.076,0,0,1-3.579,1.434h-2.571V235.879h2.571a4.076,4.076,0,0,1,3.579,1.434,10.1,10.1,0,0,1,0,8.795Z" fill="#3510ff"/>
      <g id="Group_818" data-name="Group 818">
        <path id="Path_1391" data-name="Path 1391" d="M666.971,129.191,654.613,80.583l16.587,6.7,5.089,33.578,6.145-29.039,13.217,5.34,6.476,33.941,4.956-29.322,15.992,6.461-12.424,38.6-16.322-6.6-3.436-17.777-1.718-11.862-.2-.081L687.258,121l-3.37,15.027Z" fill="#3510ff"/>
      </g>
      <g id="Group_819" data-name="Group 819">
        <path id="Path_1392" data-name="Path 1392" d="M745.936,157.828a2.691,2.691,0,0,0-3.318,1.863q-.72,2.566-1.431,5.22a2.691,2.691,0,1,0,5.2,1.394q.7-2.625,1.414-5.159A2.69,2.69,0,0,0,745.936,157.828Z" fill="none"/>
        <path id="Path_1393" data-name="Path 1393" d="M750.707,142.409a2.693,2.693,0,0,0-3.392,1.726q-.825,2.531-1.639,5.167a2.691,2.691,0,1,0,5.142,1.589q.8-2.6,1.614-5.09A2.691,2.691,0,0,0,750.707,142.409Z" fill="none"/>
        <path id="Path_1394" data-name="Path 1394" d="M741.755,173.418a2.721,2.721,0,0,0-3.254,1.971q-.636,2.59-1.264,5.258a2.691,2.691,0,0,0,5.239,1.232q.621-2.642,1.251-5.207A2.689,2.689,0,0,0,741.755,173.418Z" fill="none"/>
        <path id="Path_1395" data-name="Path 1395" d="M756.222,127.243a2.691,2.691,0,0,0-3.478,1.543q-.956,2.479-1.9,5.088a2.691,2.691,0,1,0,5.059,1.837q.93-2.559,1.866-4.99A2.689,2.689,0,0,0,756.222,127.243Z" fill="none"/>
        <path id="Path_1396" data-name="Path 1396" d="M786.786,83.295a2.683,2.683,0,0,0,1.529-.478,29.421,29.421,0,0,1,4.253-2.467,2.691,2.691,0,0,0-2.281-4.874,34.969,34.969,0,0,0-5.035,2.915,2.691,2.691,0,0,0,1.534,4.9Z" fill="none"/>
        <path id="Path_1397" data-name="Path 1397" d="M735.431,54.59,643.16,17.31V175.075l92.271,37.28Z" fill="none"/>
        <path id="Path_1398" data-name="Path 1398" d="M762.722,112.474a2.69,2.69,0,0,0-3.582,1.284c-.758,1.6-1.517,3.274-2.259,4.962a2.691,2.691,0,1,0,4.927,2.165c.722-1.644,1.462-3.269,2.2-4.829A2.69,2.69,0,0,0,762.722,112.474Z" fill="none"/>
        <path id="Path_1399" data-name="Path 1399" d="M773.645,93.965a2.689,2.689,0,0,0,3.777-.461c1.1-1.4,2.222-2.734,3.334-3.95a2.691,2.691,0,1,0-3.972-3.632c-1.2,1.317-2.416,2.752-3.6,4.265A2.692,2.692,0,0,0,773.645,93.965Z" fill="none"/>
        <path id="Path_1400" data-name="Path 1400" d="M830.993,98.325c-.766-1.74-1.593-3.433-2.459-5.031a2.691,2.691,0,0,0-4.732,2.562c.8,1.47,1.557,3.03,2.265,4.637a2.691,2.691,0,1,0,4.926-2.168Z" fill="none"/>
        <path id="Path_1401" data-name="Path 1401" d="M770.606,98.4a2.689,2.689,0,0,0-3.7.882c-.931,1.515-1.865,3.11-2.774,4.74a2.691,2.691,0,0,0,4.7,2.623c.873-1.564,1.768-3.093,2.659-4.543A2.69,2.69,0,0,0,770.606,98.4Z" fill="none"/>
        <path id="Path_1402" data-name="Path 1402" d="M838.467,175.075l92.272,37.28V54.59L838.467,17.31Z" fill="none"/>
        <path id="Path_1403" data-name="Path 1403" d="M836.12,114.161c-.406-1.812-.865-3.618-1.368-5.369a2.691,2.691,0,0,0-5.173,1.483c.473,1.65.907,3.352,1.289,5.061a2.689,2.689,0,0,0,2.217,2.069,2.619,2.619,0,0,0,.407.035,2.72,2.72,0,0,0,.59-.065A2.691,2.691,0,0,0,836.12,114.161Z" fill="none"/>
        <path id="Path_1404" data-name="Path 1404" d="M772.355,149.2l15.4-6.221V128.041l16.785-6.782v-11.3l-16.785,6.782v-6.08l20.75-8.384v-11.3l-36.147,14.6Z" fill="none"/>
        <path id="Path_1405" data-name="Path 1405" d="M818.13,79.824a2.691,2.691,0,0,0-3.531,4.062,34.275,34.275,0,0,1,3.5,3.546,2.691,2.691,0,1,0,4.086-3.5A39.8,39.8,0,0,0,818.13,79.824Z" fill="none"/>
        <path id="Path_1406" data-name="Path 1406" d="M807.9,73.961a23.146,23.146,0,0,0-5.979-1.009,2.691,2.691,0,0,0-.185,5.379,17.757,17.757,0,0,1,4.587.775,2.691,2.691,0,1,0,1.577-5.145Z" fill="none"/>
        <path id="Path_1407" data-name="Path 1407" d="M934.438,50.28,836.784,10.825c-.016-.006-.033-.007-.049-.013a2.529,2.529,0,0,0-.318-.085,2.725,2.725,0,0,0-.319-.073,2.822,2.822,0,0,0-.3-.005,2.634,2.634,0,0,0-.344.006,2.536,2.536,0,0,0-.3.068,2.656,2.656,0,0,0-.337.089c-.016.006-.032.007-.048.013L738.122,49.873,641.477,10.825a2.691,2.691,0,0,0-3.7,2.495V176.89a2.691,2.691,0,0,0,1.683,2.495l97.653,39.455c.028.011.056.014.084.024a2.519,2.519,0,0,0,.325.1c.046.01.092.023.138.031a2.853,2.853,0,0,0,.46.044h0a2.841,2.841,0,0,0,.46-.044c.046-.008.09-.021.135-.031a2.558,2.558,0,0,0,.328-.1c.027-.01.056-.013.083-.024l96.646-39.048,96.646,39.048a2.691,2.691,0,0,0,3.7-2.495V52.775A2.691,2.691,0,0,0,934.438,50.28ZM785.252,78.391a34.969,34.969,0,0,1,5.035-2.915,2.691,2.691,0,0,1,2.281,4.874,29.421,29.421,0,0,0-4.253,2.467,2.691,2.691,0,1,1-3.063-4.426Zm-12.068,11.8c1.184-1.513,2.4-2.948,3.6-4.265a2.691,2.691,0,1,1,3.972,3.632c-1.112,1.216-2.234,2.545-3.334,3.95a2.691,2.691,0,1,1-4.238-3.317ZM643.16,17.31l92.271,37.28V212.356L643.16,175.075ZM743.727,176.672q-.63,2.565-1.251,5.207a2.691,2.691,0,0,1-5.239-1.232q.629-2.669,1.264-5.258a2.691,2.691,0,0,1,5.226,1.283Zm4.072-15.526q-.711,2.535-1.414,5.159a2.691,2.691,0,1,1-5.2-1.394q.711-2.655,1.431-5.22a2.691,2.691,0,0,1,5.181,1.455Zm4.633-15.345q-.812,2.493-1.614,5.09a2.691,2.691,0,1,1-5.142-1.589q.814-2.637,1.639-5.167a2.691,2.691,0,1,1,5.117,1.666Zm5.333-15.08q-.936,2.432-1.866,4.99a2.691,2.691,0,1,1-5.059-1.837q.948-2.608,1.9-5.088a2.69,2.69,0,0,1,5.021,1.935Zm6.241-14.665c-.736,1.56-1.476,3.185-2.2,4.829a2.691,2.691,0,0,1-4.927-2.165c.742-1.688,1.5-3.358,2.259-4.962a2.691,2.691,0,1,1,4.866,2.3Zm7.482-13.953c-.891,1.45-1.786,2.979-2.659,4.543a2.691,2.691,0,0,1-4.7-2.623c.909-1.63,1.843-3.225,2.774-4.74a2.691,2.691,0,1,1,4.584,2.82Zm37.015.173-20.75,8.384v6.08l16.785-6.781v11.3l-16.785,6.782v14.935l-15.4,6.22V105.581l36.148-14.6Zm1.177-24.954a2.687,2.687,0,0,1-3.361,1.784,17.757,17.757,0,0,0-4.587-.775,2.691,2.691,0,0,1,.185-5.379,23.146,23.146,0,0,1,5.979,1.009A2.69,2.69,0,0,1,809.68,77.322Zm12.213,10.4a2.69,2.69,0,0,1-3.794-.292,34.275,34.275,0,0,0-3.5-3.546,2.691,2.691,0,0,1,3.531-4.062,39.8,39.8,0,0,1,4.055,4.105A2.691,2.691,0,0,1,821.893,87.724Zm4.174,12.769c-.708-1.607-1.469-3.167-2.265-4.637a2.691,2.691,0,0,1,4.732-2.562c.866,1.6,1.693,3.291,2.459,5.031a2.691,2.691,0,1,1-4.926,2.168Zm8.015,16.882a2.72,2.72,0,0,1-.59.065,2.619,2.619,0,0,1-.407-.035,2.689,2.689,0,0,1-2.217-2.069c-.382-1.709-.816-3.411-1.289-5.061a2.691,2.691,0,0,1,1.845-3.328,2.708,2.708,0,0,1,3.328,1.845c.5,1.751.962,3.557,1.368,5.369A2.691,2.691,0,0,1,834.082,117.375Zm96.657,94.981-92.272-37.281V17.31l92.272,37.28Z" fill="#3510ff"/>
      </g>
      <g id="Group_820" data-name="Group 820">
        <path id="Path_1408" data-name="Path 1408" d="M680.6,70.019c-1.063-1.482-2.219-2.965-3.434-4.409a2.691,2.691,0,0,0-4.117,3.467c1.126,1.337,2.2,2.71,3.178,4.079a2.691,2.691,0,1,0,4.373-3.137Z" fill="#3510ff"/>
        <path id="Path_1409" data-name="Path 1409" d="M683.248,86.678a2.691,2.691,0,1,0,5.13-1.628,46.2,46.2,0,0,0-2.073-5.322,2.69,2.69,0,1,0-4.888,2.249A41.073,41.073,0,0,1,683.248,86.678Z" fill="#3510ff"/>
        <path id="Path_1410" data-name="Path 1410" d="M686.225,147.847c-.53-1.662-1.009-3.348-1.424-5.013a2.691,2.691,0,0,0-5.222,1.3c.443,1.776.954,3.574,1.518,5.345a2.691,2.691,0,1,0,5.128-1.634Z" fill="#3510ff"/>
        <path id="Path_1411" data-name="Path 1411" d="M726.069,185.532a14.062,14.062,0,0,1-4.381,1.023,2.691,2.691,0,0,0,.179,5.376c.062,0,.123,0,.185-.007a19.427,19.427,0,0,0,6.055-1.41,2.691,2.691,0,0,0-2.038-4.982Z" fill="#3510ff"/>
        <path id="Path_1412" data-name="Path 1412" d="M712.685,184.536a29.408,29.408,0,0,1-4.2-2.558,2.691,2.691,0,1,0-3.156,4.359,34.74,34.74,0,0,0,4.98,3.026,2.691,2.691,0,0,0,2.379-4.827Z" fill="#3510ff"/>
        <path id="Path_1413" data-name="Path 1413" d="M697.849,171.041a2.691,2.691,0,1,0-4.339,3.184c1.13,1.54,2.308,3.015,3.5,4.382a2.691,2.691,0,1,0,4.058-3.535C699.974,173.817,698.891,172.461,697.849,171.041Z" fill="#3510ff"/>
        <path id="Path_1414" data-name="Path 1414" d="M690,157.577a2.691,2.691,0,1,0-4.889,2.249c.776,1.687,1.609,3.36,2.476,4.97a2.691,2.691,0,0,0,4.739-2.551C691.509,160.733,690.727,159.163,690,157.577Z" fill="#3510ff"/>
        <path id="Path_1415" data-name="Path 1415" d="M843.446,135.309a2.69,2.69,0,0,0,2.139-3.147q-.477-2.5-.972-5.26a2.69,2.69,0,1,0-5.3.95q.5,2.793.982,5.318a2.691,2.691,0,0,0,2.64,2.187A2.661,2.661,0,0,0,843.446,135.309Z" fill="#3510ff"/>
        <path id="Path_1416" data-name="Path 1416" d="M852.387,157.342a2.691,2.691,0,0,0-4.817,2.4,16.7,16.7,0,0,0,3.72,5.156,2.69,2.69,0,1,0,3.569-4.027A11.559,11.559,0,0,1,852.387,157.342Z" fill="#3510ff"/>
        <path id="Path_1417" data-name="Path 1417" d="M849.024,147.718c-.416-1.548-.843-3.273-1.27-5.126a2.691,2.691,0,0,0-5.245,1.209c.442,1.915.885,3.7,1.317,5.313a2.691,2.691,0,0,0,5.2-1.4Z" fill="#3510ff"/>
        <path id="Path_1418" data-name="Path 1418" d="M866.519,159.391a24.348,24.348,0,0,1-4.254,2.276,2.69,2.69,0,1,0,1.96,5.011,29.631,29.631,0,0,0,5.235-2.78,2.691,2.691,0,0,0-2.941-4.507Z" fill="#3510ff"/>
        <path id="Path_1419" data-name="Path 1419" d="M880.769,148.044a2.692,2.692,0,0,0-3.713.833,32.163,32.163,0,0,1-2.969,3.976,2.691,2.691,0,0,0,4.051,3.544,37.907,37.907,0,0,0,3.465-4.64A2.691,2.691,0,0,0,880.769,148.044Z" fill="#3510ff"/>
      </g>
      <g id="Group_821" data-name="Group 821">
        <path id="Path_1420" data-name="Path 1420" d="M666.414,65.757a9.79,9.79,0,0,1-3.656-.75c-4.906-1.981-8.75-7.436-8.75-12.417a7.359,7.359,0,0,1,3.07-6.273,8.152,8.152,0,0,1,7.7-.433c4.906,1.982,8.75,7.436,8.75,12.417a7.36,7.36,0,0,1-3.07,6.274A7.159,7.159,0,0,1,666.414,65.757Zm-5.3-15.244a1.827,1.827,0,0,0-1.029.266,2.2,2.2,0,0,0-.7,1.811c0,2.8,2.516,6.269,5.385,7.428a3.026,3.026,0,0,0,2.67.095,2.2,2.2,0,0,0,.7-1.812c0-2.8-2.516-6.268-5.384-7.427A4.487,4.487,0,0,0,661.117,50.513Z" fill="lime"/>
      </g>
      <g id="Group_823" data-name="Group 823">
        <g id="Group_822" data-name="Group 822">
          <path id="Path_1421" data-name="Path 1421" d="M892.211,95.19v10.838l-1.586,17.6L877.937,118.5l-1.586-18.88V88.782Z" fill="#3510ff"/>
        </g>
        <path id="Path_1422" data-name="Path 1422" d="M890.549,142.071l-3.494-5.348,2.818-2.035a2.691,2.691,0,1,0-3.152-4.362l-2.613,1.887-3.356-5.136a2.691,2.691,0,1,0-4.505,2.943l3.494,5.347-2.817,2.035a2.691,2.691,0,0,0,3.151,4.363l2.613-1.888,3.357,5.137a2.69,2.69,0,1,0,4.5-2.943Z" fill="#ff1313"/>
      </g>
    </g>
  </g>
</svg>
