<svg xmlns="http://www.w3.org/2000/svg" xmlns:xlink="http://www.w3.org/1999/xlink" width="41" height="41" viewBox="0 0 41 41">
  <defs>
    <clipPath id="clip-powerbar">
      <rect width="41" height="41"/>
    </clipPath>
  </defs>
  <g id="powerbar" clip-path="url(#clip-powerbar)">
    <rect width="41" height="41" fill="#fff"/>
    <g id="Group_370" data-name="Group 370" transform="translate(-1002.5 -1363.764)">
      <g id="Group_365" data-name="Group 365" transform="translate(1001.667 1362.764)">
        <path id="Path_423" data-name="Path 423" d="M3.967,44.433H24.944a.656.656,0,0,0,.545-.292L26.8,42.175a.659.659,0,0,0,.11-.364V20.178a.655.655,0,0,0-.113-.368l-1.2-1.764v-1.8h.656a.655.655,0,0,0,.656-.656V11.656A.655.655,0,0,0,26.255,11H2.656A.655.655,0,0,0,2,11.656v3.933a.655.655,0,0,0,.656.656h.656v1.8l-1.2,1.765A.651.651,0,0,0,2,20.178V41.811a.659.659,0,0,0,.11.364l1.311,1.967A.656.656,0,0,0,3.967,44.433ZM25.6,26.571a24.107,24.107,0,0,1-11.567,11.04L9.07,39.844H3.311v-17.7H25.6ZM14.571,38.807A25.43,25.43,0,0,0,25.6,29.217v5.729c-4.241,3.47-11.219,4.784-11.857,4.9H12.266ZM25.6,36.595v3.25H18.926A25.88,25.88,0,0,0,25.6,36.595ZM3.311,12.311H25.6v2.622H3.311Zm20.978,3.933v1.347H4.622V16.244ZM4.314,18.9H24.6l1,1.478v.454H3.311V20.38Zm-1,22.253H25.6v.457l-1.006,1.51H4.317l-1.006-1.51Z" transform="translate(0 -3.1)" fill="#3510ff"/>
        <path id="Path_424" data-name="Path 424" d="M10.378,36.556h.866l.07,0a4.341,4.341,0,0,0,3.653,1.969,2.18,2.18,0,0,0,2.177-2.177,4.383,4.383,0,0,0-4.378-4.378H11.9l-.07,0A4.342,4.342,0,0,0,8.177,30,2.18,2.18,0,0,0,6,32.177,4.383,4.383,0,0,0,10.378,36.556Zm-2.2-5.244a3.047,3.047,0,0,1,2.757,1.731.639.639,0,0,0,.426.345.647.647,0,0,0,.54-.109h.866a3.071,3.071,0,0,1,3.067,3.067.867.867,0,0,1-.866.866,3.046,3.046,0,0,1-2.757-1.731.638.638,0,0,0-.426-.345.61.61,0,0,0-.153-.019.656.656,0,0,0-.387.128h-.866a3.071,3.071,0,0,1-3.068-3.067A.867.867,0,0,1,8.177,31.311Z" transform="translate(-1.378 -9.645)" fill="#3510ff"/>
        <path id="Path_425" data-name="Path 425" d="M26.328,40.569a1.964,1.964,0,0,0,.991-.26,2.172,2.172,0,0,0,1.029-1.66,3.323,3.323,0,0,0-.452-2.035,2.68,2.68,0,0,0-3.489-1.348,2.172,2.172,0,0,0-1.029,1.66,3.323,3.323,0,0,0,.452,2.035A3.022,3.022,0,0,0,26.328,40.569Zm-1.649-3.486a.9.9,0,0,1,.383-.681.7.7,0,0,1,.354-.09,1.747,1.747,0,0,1,1.345.958,2.041,2.041,0,0,1,.286,1.223.9.9,0,0,1-.383.681c-.486.281-1.265-.117-1.7-.868A2.036,2.036,0,0,1,24.679,37.083Z" transform="translate(-7.356 -11.369)" fill="#3510ff"/>
        <path id="Path_426" data-name="Path 426" d="M55.144,2a.658.658,0,0,0-.554.3l-.76.728-.86-.824a.655.655,0,0,0-.907,0l-.858.823-.857-.823a.656.656,0,0,0-.908,0l-.857.823-.856-.822a.654.654,0,0,0-.909,0l-.854.821-.855-.821A.655.655,0,0,0,44,2.682V5.933h.016a.642.642,0,0,0,0,.159l.637,2.544V34.7l-.636,2.544a.642.642,0,0,0,0,.159H44v3.252a.655.655,0,0,0,1.109.473l.86-.824.86.824a.655.655,0,0,0,.907,0l.858-.823.857.823a.656.656,0,0,0,.908,0l.857-.823.856.822a.654.654,0,0,0,.909,0l.854-.821.855.821a.656.656,0,0,0,1.11-.473V37.4h-.016a.642.642,0,0,0,0-.159L55.144,34.7V8.636l.636-2.544a.642.642,0,0,0,0-.159H55.8V2.656A.655.655,0,0,0,55.144,2ZM45.512,4.413a.654.654,0,0,0,.909,0l.854-.821.855.821a.655.655,0,0,0,.908,0l.857-.823.857.823a.656.656,0,0,0,.908,0l.858-.823.86.823a.655.655,0,0,0,.907,0l.2-.2v1.06H45.311V4.221ZM54.3,36.744H45.5l.452-1.808a.645.645,0,0,0,.02-.159V9.211h4.589V7.9H45.823L45.5,6.589H54.3L53.853,8.4a.645.645,0,0,0-.02.159V34.122H49.244v1.311h4.732Zm-.016,2.176a.654.654,0,0,0-.909,0l-.854.821-.855-.821a.655.655,0,0,0-.908,0l-.857.823-.857-.823a.656.656,0,0,0-.908,0l-.858.823-.86-.823a.655.655,0,0,0-.907,0l-.2.2v-1.06h9.178v1.057Z" transform="translate(-14.467)" fill="#3510ff"/>
        <path id="Path_427" data-name="Path 427" d="M54.789,27.279a.656.656,0,0,0-.578-.346H52.649l1.492-2.985A.656.656,0,0,0,53.555,23H50.278a.655.655,0,0,0-.6.389l-2.622,5.9a.655.655,0,0,0,.6.922h1.8l-1.133,5.1a.656.656,0,0,0,1.186.506l5.244-7.867A.657.657,0,0,0,54.789,27.279Zm-4.421,4.892.549-2.474a.655.655,0,0,0-.64-.8H48.664L50.7,24.311h1.791L51,27.3a.656.656,0,0,0,.586.949h1.4Z" transform="translate(-15.5 -7.233)" fill="#3510ff"/>
      </g>
    </g>
  </g>
</svg>
