<svg xmlns="http://www.w3.org/2000/svg" width="39" height="38.743" viewBox="0 0 39 38.743">
  <path id="Path_420" data-name="Path 420" d="M-69.85,41.032l-3.1-3.1,1.241-1.241-2.74-2.74-.931.931L-85.989,24.272l3.778-3.778.107.107a1.95,1.95,0,0,0,1.37.567A1.939,1.939,0,0,0-78.8,19.231a1.923,1.923,0,0,0-.567-1.37l-.107-.107,5.95-5.95.674.674h.257a2.485,2.485,0,0,0,2.483-2.483V9.738l-4.709-4.709h-.257a2.475,2.475,0,0,0-2.179,1.317A5.4,5.4,0,0,0-80.8,5.029a5.455,5.455,0,0,0-5.449,5.449,5.4,5.4,0,0,0,1.188,3.392,1.941,1.941,0,0,0-1.188,1.787,1.923,1.923,0,0,0,.567,1.37l.107.107-3.778,3.778-3.778-3.778.107-.107a1.923,1.923,0,0,0,.567-1.37,1.941,1.941,0,0,0-1.188-1.787,5.4,5.4,0,0,0,1.188-3.392A5.455,5.455,0,0,0-97.9,5.029a5.406,5.406,0,0,0-3.546,1.317,2.475,2.475,0,0,0-2.179-1.317h-.257l-4.709,4.709v.257a2.485,2.485,0,0,0,2.483,2.483h.257l.674-.674,5.95,5.95-.107.107a1.922,1.922,0,0,0-.567,1.37,1.939,1.939,0,0,0,1.937,1.937A1.95,1.95,0,0,0-96.6,20.6l.107-.107,3.778,3.778-10.606,10.606-.931-.931-2.74,2.74,1.241,1.241-3.1,3.1,2.74,2.74,3.1-3.1,1.241,1.241,2.74-2.74-.931-.931L-89.35,27.633l10.606,10.606-.931.931,2.74,2.74,1.241-1.241,3.1,3.1ZM-80.735,19.927a.7.7,0,0,1-.492-.2L-84.8,16.149a.691.691,0,0,1-.2-.492.7.7,0,0,1,.7-.7.7.7,0,0,1,.492.2l.856.856,2.718,2.718a.691.691,0,0,1,.2.492A.7.7,0,0,1-80.735,19.927Zm.385-3.05-1.605-1.605L-76,9.321l1.605,1.605Zm5.042-10.584,3.937,3.937a1.243,1.243,0,0,1-.984.984l-3.937-3.937A1.243,1.243,0,0,1-75.307,6.293ZM-80.8,6.27A4.18,4.18,0,0,1-77.822,7.5l.266.266.674.674-5.95,5.95-.107-.107-.834-.834A4.18,4.18,0,0,1-85,10.478,4.212,4.212,0,0,1-80.8,6.27Zm-3.9,11.741,1.605,1.605-3.778,3.778-1.605-1.605ZM-97.9,6.27A4.213,4.213,0,0,1-93.7,10.478a4.18,4.18,0,0,1-1.232,2.975l-.834.834-.107.107-5.95-5.95.674-.674.266-.266A4.18,4.18,0,0,1-97.9,6.27Zm-8.442,4.944a1.243,1.243,0,0,1-.985-.984l3.937-3.937a1.243,1.243,0,0,1,.985.984Zm2.043-.288,1.605-1.605,5.95,5.95-1.605,1.605Zm6.336,9a.7.7,0,0,1-.7-.7.691.691,0,0,1,.2-.492l2.718-2.718.856-.856a.7.7,0,0,1,.492-.2.7.7,0,0,1,.7.7.691.691,0,0,1-.2.492l-3.574,3.574A.7.7,0,0,1-97.965,19.927Zm-8.145,22.09-.984-.984,2.226-2.226.985.985Zm4.345-1.862-.364-.364-2.74-2.74-.364-.364.985-.984,3.467,3.467Zm.931-2.793-1.605-1.605L-91.833,25.15l1.605,1.605Zm5.223-17.745,1.605-1.605,17.745,17.745-1.605,1.605Zm18.676,20.538-.985-.985,3.467-3.467.985.984-.364.364-2.74,2.74Zm3.1-1.348,2.226,2.226-.985.984-2.226-2.226Z" transform="translate(108.85 -5.029)" fill="#3510ff"/>
</svg>
