<svg xmlns="http://www.w3.org/2000/svg" width="20.364" height="16.517" viewBox="0 0 20.364 16.517">
  <path id="Path_44" data-name="Path 44" d="M44.448,18.517A11.773,11.773,0,0,0,56.327,6.638V6.073a9.2,9.2,0,0,0,2.036-2.149,9.391,9.391,0,0,1-2.376.679A4.4,4.4,0,0,0,57.8,2.339a10.377,10.377,0,0,1-2.6,1.018A4.04,4.04,0,0,0,52.141,2a4.25,4.25,0,0,0-4.186,4.186,2.206,2.206,0,0,0,.113.905,11.7,11.7,0,0,1-8.6-4.412,4.333,4.333,0,0,0-.566,2.149,4.5,4.5,0,0,0,1.81,3.507,3.814,3.814,0,0,1-1.923-.566h0a4.135,4.135,0,0,0,3.394,4.073,3.488,3.488,0,0,1-1.131.113,1.925,1.925,0,0,1-.792-.113,4.286,4.286,0,0,0,3.96,2.941,8.542,8.542,0,0,1-5.2,1.81A3.132,3.132,0,0,1,38,16.481a10.678,10.678,0,0,0,6.448,2.036" transform="translate(-38 -2)" fill="#fff" fill-rule="evenodd"/>
</svg>
